{
 "cells": [
  {
   "cell_type": "code",
   "execution_count": 2,
   "id": "e7b78646",
   "metadata": {},
   "outputs": [],
   "source": [
    "import os\n",
    "import shutil\n",
    "import numpy\n",
    "import pandas as pd\n",
    "from sklearn.model_selection import train_test_split"
   ]
  },
  {
   "cell_type": "code",
   "execution_count": 1,
   "id": "3acae9af",
   "metadata": {},
   "outputs": [],
   "source": [
    "DATADIR = \"/home/shared/workspace/rose_ntu_dataset/our_videos/\""
   ]
  },
  {
   "cell_type": "code",
   "execution_count": 3,
   "id": "6719c673",
   "metadata": {},
   "outputs": [],
   "source": [
    "TARGET_DIR = \"/home/shared/workspace/rose_ntu_dataset/our_videos/\""
   ]
  },
  {
   "cell_type": "code",
   "execution_count": 4,
   "id": "1499d1bd",
   "metadata": {},
   "outputs": [],
   "source": [
    "LABEL_DIR = \"/home/shared/workspace/rose_ntu_dataset/our_videos_labels/\""
   ]
  },
  {
   "cell_type": "code",
   "execution_count": 5,
   "id": "874b5895",
   "metadata": {},
   "outputs": [],
   "source": [
    "ACTION_NAMES = [\"sneezeCough\", \"staggering\", \"fallingDown\",\n",
    "                \"headache\", \"chestPain\", \"backPain\",\n",
    "                \"neckPain\", \"nauseaVomiting\", \"fanSelf\"]"
   ]
  },
  {
   "cell_type": "code",
   "execution_count": 6,
   "id": "5437fb7d",
   "metadata": {},
   "outputs": [],
   "source": [
    "def filter_dir(dirname):\n",
    "    for filename in os.listdir(dirname):\n",
    "        left, _ = filename.split(\"_\") \n",
    "        action_num = int(left[-3:])\n",
    "        if (action_num in range(41,50)):\n",
    "            class_dir = TARGET_DIR+ACTION_NAMES[action_num - 41] + \"/\"\n",
    "            print(dirname+filename)\n",
    "            print(class_dir+filename)\n",
    "            if not os.path.exists(class_dir):\n",
    "                os.mkdir(class_dir)\n",
    "            if not os.path.exists(class_dir+filename):\n",
    "                shutil.copy(dirname+filename, class_dir+filename)"
   ]
  },
  {
   "cell_type": "code",
   "execution_count": 7,
   "id": "089e7b04",
   "metadata": {},
   "outputs": [
    {
     "name": "stdout",
     "output_type": "stream",
     "text": [
      "/home/shared/workspace/rose_ntu_dataset/our_videos/S001C001P001R001A043_rgb.avi\n",
      "/home/shared/workspace/rose_ntu_dataset/our_videos/fallingDown/S001C001P001R001A043_rgb.avi\n",
      "/home/shared/workspace/rose_ntu_dataset/our_videos/S001C001P001R001A044_rgb.avi\n",
      "/home/shared/workspace/rose_ntu_dataset/our_videos/headache/S001C001P001R001A044_rgb.avi\n",
      "/home/shared/workspace/rose_ntu_dataset/our_videos/S001C001P001R001A041_rgb.avi\n",
      "/home/shared/workspace/rose_ntu_dataset/our_videos/sneezeCough/S001C001P001R001A041_rgb.avi\n",
      "/home/shared/workspace/rose_ntu_dataset/our_videos/S001C001P001R001A045_rgb.avi\n",
      "/home/shared/workspace/rose_ntu_dataset/our_videos/chestPain/S001C001P001R001A045_rgb.avi\n",
      "/home/shared/workspace/rose_ntu_dataset/our_videos/S001C001P002R001A042_rgb.avi\n",
      "/home/shared/workspace/rose_ntu_dataset/our_videos/staggering/S001C001P002R001A042_rgb.avi\n",
      "/home/shared/workspace/rose_ntu_dataset/our_videos/S001C001P001R001A048_rgb.avi\n",
      "/home/shared/workspace/rose_ntu_dataset/our_videos/nauseaVomiting/S001C001P001R001A048_rgb.avi\n",
      "/home/shared/workspace/rose_ntu_dataset/our_videos/S001C001P001R001A049_rgb.avi\n",
      "/home/shared/workspace/rose_ntu_dataset/our_videos/fanSelf/S001C001P001R001A049_rgb.avi\n",
      "/home/shared/workspace/rose_ntu_dataset/our_videos/S001C001P002R001A049_rgb.avi\n",
      "/home/shared/workspace/rose_ntu_dataset/our_videos/fanSelf/S001C001P002R001A049_rgb.avi\n",
      "/home/shared/workspace/rose_ntu_dataset/our_videos/S001C001P002R001A044_rgb.avi\n",
      "/home/shared/workspace/rose_ntu_dataset/our_videos/headache/S001C001P002R001A044_rgb.avi\n",
      "/home/shared/workspace/rose_ntu_dataset/our_videos/S001C001P002R001A047_rgb.avi\n",
      "/home/shared/workspace/rose_ntu_dataset/our_videos/neckPain/S001C001P002R001A047_rgb.avi\n",
      "/home/shared/workspace/rose_ntu_dataset/our_videos/S001C001P001R001A047_rgb.avi\n",
      "/home/shared/workspace/rose_ntu_dataset/our_videos/neckPain/S001C001P001R001A047_rgb.avi\n",
      "/home/shared/workspace/rose_ntu_dataset/our_videos/S001C001P002R001A041_rgb.avi\n",
      "/home/shared/workspace/rose_ntu_dataset/our_videos/sneezeCough/S001C001P002R001A041_rgb.avi\n",
      "/home/shared/workspace/rose_ntu_dataset/our_videos/S001C001P002R001A048_rgb.avi\n",
      "/home/shared/workspace/rose_ntu_dataset/our_videos/nauseaVomiting/S001C001P002R001A048_rgb.avi\n",
      "/home/shared/workspace/rose_ntu_dataset/our_videos/S001C001P002R001A043_rgb.avi\n",
      "/home/shared/workspace/rose_ntu_dataset/our_videos/fallingDown/S001C001P002R001A043_rgb.avi\n",
      "/home/shared/workspace/rose_ntu_dataset/our_videos/S001C001P002R001A046_rgb.avi\n",
      "/home/shared/workspace/rose_ntu_dataset/our_videos/backPain/S001C001P002R001A046_rgb.avi\n",
      "/home/shared/workspace/rose_ntu_dataset/our_videos/S001C001P002R001A045_rgb.avi\n",
      "/home/shared/workspace/rose_ntu_dataset/our_videos/chestPain/S001C001P002R001A045_rgb.avi\n",
      "/home/shared/workspace/rose_ntu_dataset/our_videos/S001C001P001R001A046_rgb.avi\n",
      "/home/shared/workspace/rose_ntu_dataset/our_videos/backPain/S001C001P001R001A046_rgb.avi\n",
      "/home/shared/workspace/rose_ntu_dataset/our_videos/S001C001P001R001A042_rgb.avi\n",
      "/home/shared/workspace/rose_ntu_dataset/our_videos/staggering/S001C001P001R001A042_rgb.avi\n"
     ]
    }
   ],
   "source": [
    "filter_dir(DATADIR)"
   ]
  },
  {
   "cell_type": "code",
   "execution_count": 8,
   "id": "e06e7dee",
   "metadata": {},
   "outputs": [],
   "source": [
    "def index_mapping(targetdir):\n",
    "    df = pd.DataFrame({\n",
    "        \"Index\":list(range(41, 50)),\n",
    "        \"ActionNames\":ACTION_NAMES\n",
    "    })\n",
    "    df.to_csv(LABEL_DIR+\"classInd.txt\", header=None, index=None, sep=' ', mode='a')"
   ]
  },
  {
   "cell_type": "code",
   "execution_count": 9,
   "id": "7d7b67a4",
   "metadata": {},
   "outputs": [],
   "source": [
    "index_mapping(TARGET_DIR)"
   ]
  },
  {
   "cell_type": "code",
   "execution_count": 10,
   "id": "5221ed8f",
   "metadata": {},
   "outputs": [],
   "source": [
    "def extract_labels(targetdir):\n",
    "    X,y = [],[]\n",
    "    for actioname in os.listdir(targetdir):\n",
    "        actiondir = targetdir + actioname + \"/\"\n",
    "        for filename in os.listdir(actiondir):\n",
    "            videoname,_ = filename.split(\"_\")\n",
    "            X.append(actioname+\"/\"+filename.split('.')[0])\n",
    "            y.append(int(videoname[-3:]))\n",
    "    return X,y"
   ]
  },
  {
   "cell_type": "code",
   "execution_count": 11,
   "id": "e8ec309c",
   "metadata": {},
   "outputs": [],
   "source": [
    "X,y = extract_labels(TARGET_DIR)"
   ]
  },
  {
   "cell_type": "code",
   "execution_count": 12,
   "id": "dc57b598",
   "metadata": {},
   "outputs": [
    {
     "data": {
      "text/plain": [
       "['headache/S001C001P001R001A044_rgb',\n",
       " 'headache/S001C001P002R001A044_rgb',\n",
       " 'fallingDown/S001C001P001R001A043_rgb',\n",
       " 'fallingDown/S001C001P002R001A043_rgb',\n",
       " 'sneezeCough/S001C001P001R001A041_rgb',\n",
       " 'sneezeCough/S001C001P002R001A041_rgb',\n",
       " 'backPain/S001C001P002R001A046_rgb',\n",
       " 'backPain/S001C001P001R001A046_rgb',\n",
       " 'fanSelf/S001C001P001R001A049_rgb',\n",
       " 'fanSelf/S001C001P002R001A049_rgb',\n",
       " 'staggering/S001C001P002R001A042_rgb',\n",
       " 'staggering/S001C001P001R001A042_rgb',\n",
       " 'nauseaVomiting/S001C001P001R001A048_rgb',\n",
       " 'nauseaVomiting/S001C001P002R001A048_rgb',\n",
       " 'chestPain/S001C001P001R001A045_rgb',\n",
       " 'chestPain/S001C001P002R001A045_rgb',\n",
       " 'neckPain/S001C001P002R001A047_rgb',\n",
       " 'neckPain/S001C001P001R001A047_rgb']"
      ]
     },
     "execution_count": 12,
     "metadata": {},
     "output_type": "execute_result"
    }
   ],
   "source": [
    "X"
   ]
  },
  {
   "cell_type": "code",
   "execution_count": 13,
   "id": "ea40b6f4",
   "metadata": {},
   "outputs": [
    {
     "data": {
      "text/plain": [
       "[44, 44, 43, 43, 41, 41, 46, 46, 49, 49, 42, 42, 48, 48, 45, 45, 47, 47]"
      ]
     },
     "execution_count": 13,
     "metadata": {},
     "output_type": "execute_result"
    }
   ],
   "source": [
    "y"
   ]
  },
  {
   "cell_type": "code",
   "execution_count": 15,
   "id": "bb4d1031",
   "metadata": {},
   "outputs": [],
   "source": [
    "def create_test_set(X,y):\n",
    "    \n",
    "    testdf = pd.DataFrame({\n",
    "        \"filename\":X,\n",
    "        \"label\": y\n",
    "    })\n",
    "    testdf = testdf.sort_values(by=['label'])\n",
    "    testdf.to_csv(LABEL_DIR+\"testlist01.txt\", header=None, index=None, sep=' ', mode='a')"
   ]
  },
  {
   "cell_type": "code",
   "execution_count": 16,
   "id": "506504f2",
   "metadata": {},
   "outputs": [],
   "source": [
    "create_test_set(X,y)"
   ]
  },
  {
   "cell_type": "code",
   "execution_count": 25,
   "id": "f27bf351",
   "metadata": {},
   "outputs": [
    {
     "name": "stdout",
     "output_type": "stream",
     "text": [
      "/home/shared/workspace/Resnet3D/3D-ResNets-PyTorch\n"
     ]
    }
   ],
   "source": [
    "cd /home/shared/workspace/Resnet3D/3D-ResNets-PyTorch/"
   ]
  },
  {
   "cell_type": "code",
   "execution_count": 26,
   "id": "2c4aaba2",
   "metadata": {},
   "outputs": [
    {
     "name": "stdout",
     "output_type": "stream",
     "text": [
      "TEST SET PATH\n",
      "/home/shared/workspace/rose_ntu_dataset/our_videos/test\n",
      "test path not exist\n",
      "['ffmpeg', '-i', '/home/shared/workspace/rose_ntu_dataset/our_videos/fallingDown/S001C001P001R001A043_rgb.avi', '-vf', 'scale=-1:240', '-threads', '1', 'our_data/jpg/fallingDown/S001C001P001R001A043_rgb/image_%05d.jpg']\n",
      "['ffmpeg', '-i', '/home/shared/workspace/rose_ntu_dataset/our_videos/fanSelf/S001C001P001R001A049_rgb.avi', '-vf', 'scale=-1:240', '-threads', '1', 'our_data/jpg/fanSelf/S001C001P001R001A049_rgb/image_%05d.jpg']\n",
      "['ffmpeg', '-i', '/home/shared/workspace/rose_ntu_dataset/our_videos/chestPain/S001C001P001R001A045_rgb.avi', '-vf', 'scale=-1:240', '-threads', '1', 'our_data/jpg/chestPain/S001C001P001R001A045_rgb/image_%05d.jpg']\n",
      "['ffmpeg', '-i', '/home/shared/workspace/rose_ntu_dataset/our_videos/backPain/S001C001P001R001A046_rgb.avi', '-vf', 'scale=-1:240', '-threads', '1', 'our_data/jpg/backPain/S001C001P001R001A046_rgb/image_%05d.jpg']\n",
      "ffmpeg version 4.2 Copyright (c) 2000-2019 the FFmpeg developers\n",
      "  built with gcc 7.3.0 (crosstool-NG 1.23.0.449-a04d0)\n",
      "  configuration: --prefix=/home/ubuntu/anaconda3 --cc=/home/conda/feedstock_root/build_artifacts/ffmpeg_1566210161358/_build_env/bin/x86_64-conda_cos6-linux-gnu-cc --disable-doc --disable-openssl --enable-avresample --enable-gnutls --enable-gpl --enable-hardcoded-tables --enable-libfreetype --enable-libopenh264 --enable-libx264 --enable-pic --enable-pthreads --enable-shared --enable-static --enable-version3 --enable-zlib --enable-libmp3lame\n",
      "  libavutil      56. 31.100 / 56. 31.100\n",
      "  libavcodec     58. 54.100 / 58. 54.100\n",
      "  libavformat    58. 29.100 / 58. 29.100\n",
      "  libavdevice    58.  8.100 / 58.  8.100\n",
      "  libavfilter     7. 57.100 /  7. 57.100\n",
      "  libavresample   4.  0.  0 /  4.  0.  0\n",
      "  libswscale      5.  5.100 /  5.  5.100\n",
      "  libswresample   3.  5.100 /  3.  5.100\n",
      "  libpostproc    55.  5.100 / 55.  5.100\n",
      "ffmpeg version 4.2 Copyright (c) 2000-2019 the FFmpeg developers\n",
      "  built with gcc 7.3.0 (crosstool-NG 1.23.0.449-a04d0)\n",
      "  configuration: --prefix=/home/ubuntu/anaconda3 --cc=/home/conda/feedstock_root/build_artifacts/ffmpeg_1566210161358/_build_env/bin/x86_64-conda_cos6-linux-gnu-cc --disable-doc --disable-openssl --enable-avresample --enable-gnutls --enable-gpl --enable-hardcoded-tables --enable-libfreetype --enable-libopenh264 --enable-libx264 --enable-pic --enable-pthreads --enable-shared --enable-static --enable-version3 --enable-zlib --enable-libmp3lame\n",
      "  libavutil      56. 31.100 / 56. 31.100\n",
      "  libavcodec     58. 54.100 / 58. 54.100\n",
      "  libavformat    58. 29.100 / 58. 29.100\n",
      "  libavdevice    58.  8.100 / 58.  8.100\n",
      "  libavfilter     7. 57.100 /  7. 57.100\n",
      "  libavresample   4.  0.  0 /  4.  0.  0\n",
      "  libswscale      5.  5.100 /  5.  5.100\n",
      "  libswresample   3.  5.100 /  3.  5.100\n",
      "  libpostproc    55.  5.100 / 55.  5.100\n",
      "ffmpeg version 4.2 Copyright (c) 2000-2019 the FFmpeg developers\n",
      "  built with gcc 7.3.0 (crosstool-NG 1.23.0.449-a04d0)\n",
      "  configuration: --prefix=/home/ubuntu/anaconda3 --cc=/home/conda/feedstock_root/build_artifacts/ffmpeg_1566210161358/_build_env/bin/x86_64-conda_cos6-linux-gnu-cc --disable-doc --disable-openssl --enable-avresample --enable-gnutls --enable-gpl --enable-hardcoded-tables --enable-libfreetype --enable-libopenh264 --enable-libx264 --enable-pic --enable-pthreads --enable-shared --enable-static --enable-version3 --enable-zlib --enable-libmp3lame\n",
      "  libavutil      56. 31.100 / 56. 31.100\n",
      "  libavcodec     58. 54.100 / 58. 54.100\n",
      "  libavformat    58. 29.100 / 58. 29.100\n",
      "  libavdevice    58.  8.100 / 58.  8.100\n",
      "  libavfilter     7. 57.100 /  7. 57.100\n",
      "  libavresample   4.  0.  0 /  4.  0.  0\n",
      "  libswscale      5.  5.100 /  5.  5.100\n",
      "  libswresample   3.  5.100 /  3.  5.100\n",
      "  libpostproc    55.  5.100 / 55.  5.100\n",
      "ffmpeg version 4.2 Copyright (c) 2000-2019 the FFmpeg developers\n",
      "  built with gcc 7.3.0 (crosstool-NG 1.23.0.449-a04d0)\n",
      "  configuration: --prefix=/home/ubuntu/anaconda3 --cc=/home/conda/feedstock_root/build_artifacts/ffmpeg_1566210161358/_build_env/bin/x86_64-conda_cos6-linux-gnu-cc --disable-doc --disable-openssl --enable-avresample --enable-gnutls --enable-gpl --enable-hardcoded-tables --enable-libfreetype --enable-libopenh264 --enable-libx264 --enable-pic --enable-pthreads --enable-shared --enable-static --enable-version3 --enable-zlib --enable-libmp3lame\n",
      "  libavutil      56. 31.100 / 56. 31.100\n",
      "  libavcodec     58. 54.100 / 58. 54.100\n",
      "  libavformat    58. 29.100 / 58. 29.100\n",
      "  libavdevice    58.  8.100 / 58.  8.100\n",
      "  libavfilter     7. 57.100 /  7. 57.100\n",
      "  libavresample   4.  0.  0 /  4.  0.  0\n",
      "  libswscale      5.  5.100 /  5.  5.100\n",
      "  libswresample   3.  5.100 /  3.  5.100\n",
      "  libpostproc    55.  5.100 / 55.  5.100\n",
      "Input #0, mov,mp4,m4a,3gp,3g2,mj2, from '/home/shared/workspace/rose_ntu_dataset/our_videos/fallingDown/S001C001P001R001A043_rgb.avi':\n",
      "  Metadata:\n",
      "    major_brand     : qt  \n",
      "    minor_version   : 0\n",
      "    compatible_brands: qt  \n",
      "    creation_time   : 2021-11-29T00:35:06.000000Z\n",
      "    com.apple.quicktime.make: Apple\n",
      "    com.apple.quicktime.model: iPhone SE (2nd generation)\n",
      "    com.apple.quicktime.software: 14.8.1\n",
      "    com.apple.quicktime.creationdate: 2021-11-28T16:15:00-0800\n",
      "    com.apple.photos.originating.signature: AfTuKFZyt9kbIzovzOP8H5DDVZ9E\n",
      "  Duration: 00:00:03.07, start: 0.000000, bitrate: 15575 kb/s\n",
      "    Stream #0:0(und): Video: h264 (High) (avc1 / 0x31637661), yuv420p(tv, bt709), 1920x1080, 15521 kb/s, 30.34 fps, 30 tbr, 600 tbn, 1200 tbc (default)\n",
      "    Metadata:\n",
      "      creation_time   : 2021-11-29T00:35:06.000000Z\n",
      "      handler_name    : Core Media Video\n",
      "      encoder         : H.264\n",
      "    Stream #0:1(und): Data: none (mebx / 0x7862656D), 0 kb/s (default)\n",
      "    Metadata:\n",
      "      creation_time   : 2021-11-29T00:35:06.000000Z\n",
      "      handler_name    : Core Media Metadata\n",
      "    Stream #0:2(und): Data: none (mebx / 0x7862656D), 1 kb/s (default)\n",
      "    Metadata:\n",
      "      creation_time   : 2021-11-29T00:35:06.000000Z\n",
      "      handler_name    : Core Media Metadata\n",
      "    Stream #0:3(und): Data: none (mebx / 0x7862656D), 35 kb/s (default)\n",
      "    Metadata:\n",
      "      creation_time   : 2021-11-29T00:35:06.000000Z\n",
      "      handler_name    : Core Media Metadata\n",
      "Stream mapping:\n",
      "  Stream #0:0 -> #0:0 (h264 (native) -> mjpeg (native))\n",
      "Press [q] to stop, [?] for help\n",
      "Input #0, mov,mp4,m4a,3gp,3g2,mj2, from '/home/shared/workspace/rose_ntu_dataset/our_videos/fanSelf/S001C001P001R001A049_rgb.avi':\n",
      "  Metadata:\n",
      "    major_brand     : qt  \n",
      "    minor_version   : 0\n",
      "    compatible_brands: qt  \n",
      "    creation_time   : 2021-11-29T00:35:05.000000Z\n",
      "    com.apple.quicktime.make: Apple\n",
      "    com.apple.quicktime.model: iPhone SE (2nd generation)\n",
      "    com.apple.quicktime.software: 14.8.1\n",
      "    com.apple.quicktime.creationdate: 2021-11-28T16:13:11-0800\n",
      "    com.apple.photos.originating.signature: AVn6GKYppXsS3VJn8mEuj9OZzOvE\n",
      "  Duration: 00:00:02.88, start: 0.000000, bitrate: 15251 kb/s\n",
      "    Stream #0:0(und): Video: h264 (High) (avc1 / 0x31637661), yuv420p(tv, bt709), 1920x1080, 15201 kb/s, 30.56 fps, 30 tbr, 600 tbn, 1200 tbc (default)\n",
      "    Metadata:\n",
      "      creation_time   : 2021-11-29T00:35:05.000000Z\n",
      "      handler_name    : Core Media Video\n",
      "      encoder         : H.264\n",
      "    Stream #0:1(und): Data: none (mebx / 0x7862656D), 0 kb/s (default)\n",
      "    Metadata:\n",
      "      creation_time   : 2021-11-29T00:35:05.000000Z\n",
      "      handler_name    : Core Media Metadata\n",
      "    Stream #0:2(und): Data: none (mebx / 0x7862656D), 0 kb/s (default)\n",
      "    Metadata:\n",
      "      creation_time   : 2021-11-29T00:35:05.000000Z\n",
      "      handler_name    : Core Media Metadata\n",
      "    Stream #0:3(und): Data: none (mebx / 0x7862656D), 34 kb/s (default)\n",
      "    Metadata:\n",
      "      creation_time   : 2021-11-29T00:35:05.000000Z\n",
      "      handler_name    : Core Media Metadata\n",
      "Input #0, mov,mp4,m4a,3gp,3g2,mj2, from '/home/shared/workspace/rose_ntu_dataset/our_videos/chestPain/S001C001P001R001A045_rgb.avi':\n",
      "  Metadata:\n",
      "    major_brand     : qt  \n",
      "    minor_version   : 0\n",
      "    compatible_brands: qt  \n",
      "    creation_time   : 2021-11-29T00:35:02.000000Z\n",
      "    com.apple.quicktime.make: Apple\n",
      "    com.apple.quicktime.model: iPhone SE (2nd generation)\n",
      "    com.apple.quicktime.software: 14.8.1\n",
      "    com.apple.quicktime.creationdate: 2021-11-28T16:07:09-0800\n",
      "    com.apple.photos.originating.signature: Ab8ISN0n2/G9PqdI6w73sKKXk9HA\n",
      "  Duration: 00:00:03.61, start: 0.000000, bitrate: 15414 kb/s\n",
      "    Stream #0:0(und): Video: h264 (High) (avc1 / 0x31637661), yuv420p(tv, bt709), 1920x1080, 15366 kb/s, 30.17 fps, 30 tbr, 600 tbn, 1200 tbcStream mapping:\n",
      "  Stream #0:0 -> #0:0 (h264 (native) -> mjpeg (native))\n",
      "Press [q] to stop, [?] for help\n",
      "Input #0, mov,mp4,m4a,3gp,3g2,mj2, from '/home/shared/workspace/rose_ntu_dataset/our_videos/backPain/S001C001P001R001A046_rgb.avi':\n",
      "  Metadata:\n",
      "    major_brand     : qt  \n",
      "    minor_version   : 0\n",
      "    compatible_brands: qt  \n",
      "    creation_time   : 2021-11-29T00:35:03.000000Z\n",
      "    com.apple.quicktime.make: Apple\n",
      "    com.apple.quicktime.model: iPhone SE (2nd generation)\n",
      "    com.apple.quicktime.software: 14.8.1\n",
      "    com.apple.quicktime.creationdate: 2021-11-28T16:08:28-0800\n",
      "    com.apple.photos.originating.signature: ASMOHmwXJmFvyPS6g8TIAVmU4Vhl\n",
      "  Duration: 00:00:03.43, start: 0.000000, bitrate: 15538 kb/s\n",
      "    Stream #0:0(und): Video: h264 (High) (avc1 / 0x31637661), yuv420p(tv, bt709), 1920x1080, 15463 kb/s, 30.04 fps, 30 tbr, 600 tbn, 1200 tbc (default)\n",
      "    Metadata:\n",
      "      creation_time   : 2021-11-29T00:35:03.000000Z\n",
      "      handler_name    : Core Media Video\n",
      "      encoder         : H.264\n",
      "    Stream #0:1(und): Data: none (mebx / 0x7862656D), 0 kb/s (default)\n",
      "    Metadata:\n",
      "      creation_time   : 2021-11-29T00:35:03.000000Z\n",
      "      handler_name    : Core Media Metadata\n",
      "    Stream #0:2(und): Data: none (mebx / 0x7862656D), 18 kb/s (default)\n",
      "    Metadata:\n",
      "      creation_time   : 2021-11-29T00:35:03.000000Z\n",
      "      handler_name    : Core Media Metadata\n",
      "    Stream #0:3(und): Data: none (mebx / 0x7862656D), 40 kb/s (default)\n",
      "    Metadata:\n",
      "      creation_time   : 2021-11-29T00:35:03.000000Z\n",
      "      handler_name    : Core Media Metadata\n",
      " (default)\n",
      "    Metadata:\n",
      "      creation_time   : 2021-11-29T00:35:02.000000Z\n",
      "      handler_name    : Core Media Video\n",
      "      encoder         : H.264\n",
      "    Stream #0:1(und): Data: none (mebx / 0x7862656D), 0 kb/s (default)\n",
      "    Metadata:\n",
      "      creation_time   : 2021-11-29T00:35:02.000000Z\n",
      "      handler_name    : Core Media Metadata\n",
      "    Stream #0:2(und): Data: none (mebx / 0x7862656D), 0 kb/s (default)\n",
      "    Metadata:\n",
      "      creation_time   : 2021-11-29T00:35:02.000000Z\n",
      "      handler_name    : Core Media Metadata\n",
      "    Stream #0:3(und): Data: none (mebx / 0x7862656D), 34 kb/s (default)\n",
      "    Metadata:\n",
      "      creation_time   : 2021-11-29T00:35:02.000000Z\n",
      "      handler_name    : Core Media Metadata\n",
      "Stream mapping:\n",
      "  Stream #0:0 -> #0:0 (h264 (native) -> mjpeg (native))\n",
      "Press [q] to stop, [?] for help\n",
      "Stream mapping:\n",
      "  Stream #0:0 -> #0:0 (h264 (native) -> mjpeg (native))\n",
      "Press [q] to stop, [?] for help\n"
     ]
    },
    {
     "name": "stdout",
     "output_type": "stream",
     "text": [
      "\u001b[1;34m[swscaler @ 0x561e95824cc0] \u001b[0m\u001b[0;33mdeprecated pixel format used, make sure you did set range correctly\n",
      "\u001b[0mOutput #0, image2, to 'our_data/jpg/fanSelf/S001C001P001R001A049_rgb/image_%05d.jpg':\n",
      "  Metadata:\n",
      "    major_brand     : qt  \n",
      "    minor_version   : 0\n",
      "    compatible_brands: qt  \n",
      "    com.apple.photos.originating.signature: AVn6GKYppXsS3VJn8mEuj9OZzOvE\n",
      "    com.apple.quicktime.make: Apple\n",
      "    com.apple.quicktime.model: iPhone SE (2nd generation)\n",
      "    com.apple.quicktime.software: 14.8.1\n",
      "    com.apple.quicktime.creationdate: 2021-11-28T16:13:11-0800\n",
      "    encoder         : Lavf58.29.100\n",
      "    Stream #0:0(und): Video: mjpeg, yuvj420p(pc), 427x240, q=2-31, 200 kb/s, 30 fps, 30 tbn, 30 tbc (default)\n",
      "    Metadata:\n",
      "      creation_time   : 2021-11-29T00:35:05.000000Z\n",
      "      handler_name    : Core Media Video\n",
      "      encoder         : Lavc58.54.100 mjpeg\n",
      "    Side data:\n",
      "      cpb: bitrate max/min/avg: 0/0/200000 buffer size: 0 vbv_delay: -1\n",
      "\u001b[1;34m[swscaler @ 0x565452d32940] \u001b[0m\u001b[0;33mdeprecated pixel format used, make sure you did set range correctly\n",
      "\u001b[0mOutput #0, image2, to 'our_data/jpg/fallingDown/S001C001P001R001A043_rgb/image_%05d.jpg':\n",
      "  Metadata:\n",
      "    major_brand     : qt  \n",
      "    minor_version   : 0\n",
      "    compatible_brands: qt  \n",
      "    com.apple.photos.originating.signature: AfTuKFZyt9kbIzovzOP8H5DDVZ9E\n",
      "    com.apple.quicktime.make: Apple\n",
      "    com.apple.quicktime.model: iPhone SE (2nd generation)\n",
      "    com.apple.quicktime.software: 14.8.1\n",
      "    com.apple.quicktime.creationdate: 2021-11-28T16:15:00-0800\n",
      "    encoder         : Lavf58.29.100\n",
      "    Stream #0:0(und): Video: mjpeg, yuvj420p(pc), 427x240, q=2-31, 200 kb/s, 30 fps, 30 tbn, 30 tbc (default)\n",
      "    Metadata:\n",
      "      creation_time   : 2021-11-29T00:35:06.000000Z\n",
      "      handler_name    : Core Media Video\n",
      "      encoder         : Lavc58.54.100 mjpeg\n",
      "    Side data:\n",
      "      cpb: bitrate max/min/avg: 0/0/200000 buffer size: 0 vbv_delay: -1\n",
      "\u001b[1;34m[swscaler @ 0x55dcd3518e00] \u001b[0m\u001b[0;33mdeprecated pixel format used, make sure you did set range correctly\n",
      "\u001b[0mOutput #0, image2, to 'our_data/jpg/chestPain/S001C001P001R001A045_rgb/image_%05d.jpg':\n",
      "  Metadata:\n",
      "    major_brand     : qt  \n",
      "    minor_version   : 0\n",
      "    compatible_brands: qt  \n",
      "    com.apple.photos.originating.signature: Ab8ISN0n2/G9PqdI6w73sKKXk9HA\n",
      "    com.apple.quicktime.make: Apple\n",
      "    com.apple.quicktime.model: iPhone SE (2nd generation)\n",
      "    com.apple.quicktime.software: 14.8.1\n",
      "    com.apple.quicktime.creationdate: 2021-11-28T16:07:09-0800\n",
      "    encoder         : Lavf58.29.100\n",
      "    Stream #0:0(und): Video: mjpeg, yuvj420p(pc), 427x240, q=2-31, 200 kb/s, 30 fps, 30 tbn, 30 tbc (default)\n",
      "    Metadata:\n",
      "      creation_time   : 2021-11-29T00:35:02.000000Z\n",
      "      handler_name    : Core Media Video\n",
      "      encoder         : Lavc58.54.100 mjpeg\n",
      "    Side data:\n",
      "      cpb: bitrate max/min/avg: 0/0/200000 buffer size: 0 vbv_delay: -1\n",
      "\u001b[1;34m[swscaler @ 0x55f46cde6240] \u001b[0m\u001b[0;33mdeprecated pixel format used, make sure you did set range correctly\n",
      "\u001b[0mOutput #0, image2, to 'our_data/jpg/backPain/S001C001P001R001A046_rgb/image_%05d.jpg':\n",
      "  Metadata:\n",
      "    major_brand     : qt  \n",
      "    minor_version   : 0\n",
      "    compatible_brands: qt  \n",
      "    com.apple.photos.originating.signature: ASMOHmwXJmFvyPS6g8TIAVmU4Vhl\n",
      "    com.apple.quicktime.make: Apple\n",
      "    com.apple.quicktime.model: iPhone SE (2nd generation)\n",
      "    com.apple.quicktime.software: 14.8.1\n",
      "    com.apple.quicktime.creationdate: 2021-11-28T16:08:28-0800\n",
      "    encoder         : Lavf58.29.100\n",
      "    Stream #0:0(und): Video: mjpeg, yuvj420p(pc), 427x240, q=2-31, 200 kb/s, 30 fps, 30 tbn, 30 tbc (default)\n",
      "    Metadata:\n",
      "      creation_time   : 2021-11-29T00:35:03.000000Z\n",
      "      handler_name    : Core Media Video\n",
      "      encoder         : Lavc58.54.100 mjpeg\n",
      "    Side data:\n",
      "      cpb: bitrate max/min/avg: 0/0/200000 buffer size: 0 vbv_delay: -1\n",
      "frame=   88 fps= 38 q=24.8 Lsize=N/A time=00:00:02.93 bitrate=N/A speed=1.27x    \n",
      "video:594kB audio:0kB subtitle:0kB other streams:0kB global headers:0kB muxing overhead: unknown\n",
      "\n",
      "\n",
      "['ffmpeg', '-i', '/home/shared/workspace/rose_ntu_dataset/our_videos/fanSelf/S001C001P002R001A049_rgb.avi', '-vf', 'scale=-1:240', '-threads', '1', 'our_data/jpg/fanSelf/S001C001P002R001A049_rgb/image_%05d.jpg']\n",
      "ffmpeg version 4.2 Copyright (c) 2000-2019 the FFmpeg developers\n",
      "  built with gcc 7.3.0 (crosstool-NG 1.23.0.449-a04d0)\n",
      "  configuration: --prefix=/home/ubuntu/anaconda3 --cc=/home/conda/feedstock_root/build_artifacts/ffmpeg_1566210161358/_build_env/bin/x86_64-conda_cos6-linux-gnu-cc --disable-doc --disable-openssl --enable-avresample --enable-gnutls --enable-gpl --enable-hardcoded-tables --enable-libfreetype --enable-libopenh264 --enable-libx264 --enable-pic --enable-pthreads --enable-shared --enable-static --enable-version3 --enable-zlib --enable-libmp3lame\n",
      "  libavutil      56. 31.100 / 56. 31.100\n",
      "  libavcodec     58. 54.100 / 58. 54.100\n",
      "  libavformat    58. 29.100 / 58. 29.100\n",
      "  libavdevice    58.  8.100 / 58.  8.100\n",
      "  libavfilter     7. 57.100 /  7. 57.100\n",
      "  libavresample   4.  0.  0 /  4.  0.  0\n",
      "  libswscale      5.  5.100 /  5.  5.100\n",
      "  libswresample   3.  5.100 /  3.  5.100\n",
      "  libpostproc    55.  5.100 / 55.  5.100\n",
      "frame=   93 fps= 37 q=24.8 Lsize=N/A time=00:00:03.10 bitrate=N/A speed=1.25x    \n",
      "video:625kB audio:0kB subtitle:0kB other streams:0kB global headers:0kB muxing overhead: unknown\n",
      "\n",
      "\n",
      "Input #0, mov,mp4,m4a,3gp,3g2,mj2, from '/home/shared/workspace/rose_ntu_dataset/our_videos/fanSelf/S001C001P002R001A049_rgb.avi':\n",
      "  Metadata:\n",
      "    major_brand     : qt  \n",
      "    minor_version   : 0\n",
      "    compatible_brands: qt  \n",
      "    creation_time   : 2021-11-29T00:35:13.000000Z\n",
      "    com.apple.quicktime.make: Apple\n",
      "    com.apple.quicktime.model: iPhone SE (2nd generation)\n",
      "    com.apple.quicktime.software: 14.8.1\n",
      "    com.apple.quicktime.creationdate: 2021-11-28T16:19:56-0800\n",
      "    com.apple.photos.originating.signature: AZiNAxenVwFvwPDHpegGkxkDBfXv\n",
      "  Duration: 00:00:03.67, start: 0.000000, bitrate: 15374 kb/s\n",
      "    Stream #0:0(und): Video: h264 (High) (avc1 / 0x31637661), yuv420p(tv, bt709), 1920x1080, 15304 kb/s, 30 fps, 30 tbr, 600 tbn, 1200 tbc (default)\n",
      "    Metadata:\n",
      "      creation_time   : 2021-11-29T00:35:13.000000Z\n",
      "      handler_name    : Core Media Video\n",
      "      encoder         : H.264\n",
      "    Stream #0:1(und): Data: none (mebx / 0x7862656D), 0 kb/s (default)\n",
      "    Metadata:\n",
      "      creation_time   : 2021-11-29T00:35:13.000000Z\n",
      "      handler_name    : Core Media Metadata\n",
      "    Stream #0:2(und): Data: none (mebx / 0x7862656D), 15 kb/s (default)\n",
      "    Metadata:\n",
      "      creation_time   : 2021-11-29T00:35:13.000000Z\n",
      "      handler_name    : Core Media Metadata\n",
      "    Stream #0:3(und): Data: none (mebx / 0x7862656D), 39 kb/s (default)\n",
      "    Metadata:\n",
      "      creation_time   : 2021-11-29T00:35:13.000000Z\n",
      "      handler_name    : Core Media Metadata\n",
      "Stream mapping:\n",
      "  Stream #0:0 -> #0:0 (h264 (native) -> mjpeg (native))\n",
      "Press [q] to stop, [?] for help\n",
      "\u001b[1;34m[swscaler @ 0x555850131780] \u001b[0m\u001b[0;33mdeprecated pixel format used, make sure you did set range correctly\n",
      "\u001b[0mOutput #0, image2, to 'our_data/jpg/fanSelf/S001C001P002R001A049_rgb/image_%05d.jpg':\n",
      "  Metadata:\n",
      "    major_brand     : qt  \n",
      "    minor_version   : 0\n",
      "    compatible_brands: qt  \n",
      "    com.apple.photos.originating.signature: AZiNAxenVwFvwPDHpegGkxkDBfXv\n",
      "    com.apple.quicktime.make: Apple\n",
      "    com.apple.quicktime.model: iPhone SE (2nd generation)\n",
      "    com.apple.quicktime.software: 14.8.1\n",
      "    com.apple.quicktime.creationdate: 2021-11-28T16:19:56-0800\n",
      "    encoder         : Lavf58.29.100\n",
      "    Stream #0:0(und): Video: mjpeg, yuvj420p(pc), 427x240, q=2-31, 200 kb/s, 30 fps, 30 tbn, 30 tbc (default)\n",
      "    Metadata:\n",
      "      creation_time   : 2021-11-29T00:35:13.000000Z\n",
      "      handler_name    : Core Media Video\n",
      "      encoder         : Lavc58.54.100 mjpeg\n",
      "    Side data:\n",
      "      cpb: bitrate max/min/avg: 0/0/200000 buffer size: 0 vbv_delay: -1\n",
      "['ffmpeg', '-i', '/home/shared/workspace/rose_ntu_dataset/our_videos/fallingDown/S001C001P002R001A043_rgb.avi', '-vf', 'scale=-1:240', '-threads', '1', 'our_data/jpg/fallingDown/S001C001P002R001A043_rgb/image_%05d.jpg']\n",
      "frame=  103 fps= 39 q=24.8 Lsize=N/A time=00:00:03.43 bitrate=N/A speed= 1.3x    \n",
      "video:678kB audio:0kB subtitle:0kB other streams:0kB global headers:0kB muxing overhead: unknown\n",
      "ffmpeg version 4.2 Copyright (c) 2000-2019 the FFmpeg developers\n",
      "  built with gcc 7.3.0 (crosstool-NG 1.23.0.449-a04d0)\n",
      "  configuration: --prefix=/home/ubuntu/anaconda3 --cc=/home/conda/feedstock_root/build_artifacts/ffmpeg_1566210161358/_build_env/bin/x86_64-conda_cos6-linux-gnu-cc --disable-doc --disable-openssl --enable-avresample --enable-gnutls --enable-gpl --enable-hardcoded-tables --enable-libfreetype --enable-libopenh264 --enable-libx264 --enable-pic --enable-pthreads --enable-shared --enable-static --enable-version3 --enable-zlib --enable-libmp3lame\n",
      "  libavutil      56. 31.100 / 56. 31.100\n",
      "  libavcodec     58. 54.100 / 58. 54.100\n",
      "  libavformat    58. 29.100 / 58. 29.100\n",
      "  libavdevice    58.  8.100 / 58.  8.100\n",
      "  libavfilter     7. 57.100 /  7. 57.100\n",
      "  libavresample   4.  0.  0 /  4.  0.  0\n",
      "  libswscale      5.  5.100 /  5.  5.100\n",
      "  libswresample   3.  5.100 /  3.  5.100\n",
      "  libpostproc    55.  5.100 / 55.  5.100\n",
      "\n",
      "\n"
     ]
    },
    {
     "name": "stdout",
     "output_type": "stream",
     "text": [
      "Input #0, mov,mp4,m4a,3gp,3g2,mj2, from '/home/shared/workspace/rose_ntu_dataset/our_videos/fallingDown/S001C001P002R001A043_rgb.avi':\n",
      "  Metadata:\n",
      "    major_brand     : qt  \n",
      "    minor_version   : 0\n",
      "    compatible_brands: qt  \n",
      "    creation_time   : 2021-11-29T00:35:14.000000Z\n",
      "    com.apple.quicktime.make: Apple\n",
      "    com.apple.quicktime.model: iPhone SE (2nd generation)\n",
      "    com.apple.quicktime.software: 14.8.1\n",
      "    com.apple.quicktime.creationdate: 2021-11-28T16:20:19-0800\n",
      "    com.apple.photos.originating.signature: AWcZ3Wl/gYclNDRuShYwOVMlEU6l\n",
      "  Duration: 00:00:02.50, start: 0.000000, bitrate: 15481 kb/s\n",
      "    Stream #0:0(und): Video: h264 (High) (avc1 / 0x31637661), yuv420p(tv, bt709), 1920x1080, 15430 kb/s, 30 fps, 30 tbr, 600 tbn, 1200 tbc (default)\n",
      "    Metadata:\n",
      "      creation_time   : 2021-11-29T00:35:14.000000Z\n",
      "      handler_name    : Core Media Video\n",
      "      encoder         : H.264\n",
      "    Stream #0:1(und): Data: none (mebx / 0x7862656D), 0 kb/s (default)\n",
      "    Metadata:\n",
      "      creation_time   : 2021-11-29T00:35:14.000000Z\n",
      "      handler_name    : Core Media Metadata\n",
      "    Stream #0:2(und): Data: none (mebx / 0x7862656D), 0 kb/s (default)\n",
      "    Metadata:\n",
      "      creation_time   : 2021-11-29T00:35:14.000000Z\n",
      "      handler_name    : Core Media Metadata\n",
      "    Stream #0:3(und): Data: none (mebx / 0x7862656D), 34 kb/s (default)\n",
      "    Metadata:\n",
      "      creation_time   : 2021-11-29T00:35:14.000000Z\n",
      "      handler_name    : Core Media Metadata\n",
      "Stream mapping:\n",
      "  Stream #0:0 -> #0:0 (h264 (native) -> mjpeg (native))\n",
      "Press [q] to stop, [?] for help\n",
      "frame=  109 fps= 40 q=24.8 Lsize=N/A time=00:00:03.63 bitrate=N/A speed=1.33x    \n",
      "video:735kB audio:0kB subtitle:0kB other streams:0kB global headers:0kB muxing overhead: unknown\n",
      "\n",
      "\n",
      "['ffmpeg', '-i', '/home/shared/workspace/rose_ntu_dataset/our_videos/backPain/S001C001P002R001A046_rgb.avi', '-vf', 'scale=-1:240', '-threads', '1', 'our_data/jpg/backPain/S001C001P002R001A046_rgb/image_%05d.jpg']\n",
      "ffmpeg version 4.2 Copyright (c) 2000-2019 the FFmpeg developers\n",
      "  built with gcc 7.3.0 (crosstool-NG 1.23.0.449-a04d0)\n",
      "  configuration: --prefix=/home/ubuntu/anaconda3 --cc=/home/conda/feedstock_root/build_artifacts/ffmpeg_1566210161358/_build_env/bin/x86_64-conda_cos6-linux-gnu-cc --disable-doc --disable-openssl --enable-avresample --enable-gnutls --enable-gpl --enable-hardcoded-tables --enable-libfreetype --enable-libopenh264 --enable-libx264 --enable-pic --enable-pthreads --enable-shared --enable-static --enable-version3 --enable-zlib --enable-libmp3lame\n",
      "  libavutil      56. 31.100 / 56. 31.100\n",
      "  libavcodec     58. 54.100 / 58. 54.100\n",
      "  libavformat    58. 29.100 / 58. 29.100\n",
      "  libavdevice    58.  8.100 / 58.  8.100\n",
      "  libavfilter     7. 57.100 /  7. 57.100\n",
      "  libavresample   4.  0.  0 /  4.  0.  0\n",
      "  libswscale      5.  5.100 /  5.  5.100\n",
      "  libswresample   3.  5.100 /  3.  5.100\n",
      "  libpostproc    55.  5.100 / 55.  5.100\n",
      "\u001b[1;34m[swscaler @ 0x562cac50f280] \u001b[0m\u001b[0;33mdeprecated pixel format used, make sure you did set range correctly\n",
      "\u001b[0mOutput #0, image2, to 'our_data/jpg/fallingDown/S001C001P002R001A043_rgb/image_%05d.jpg':\n",
      "  Metadata:\n",
      "    major_brand     : qt  \n",
      "    minor_version   : 0\n",
      "    compatible_brands: qt  \n",
      "    com.apple.photos.originating.signature: AWcZ3Wl/gYclNDRuShYwOVMlEU6l\n",
      "    com.apple.quicktime.make: Apple\n",
      "    com.apple.quicktime.model: iPhone SE (2nd generation)\n",
      "    com.apple.quicktime.software: 14.8.1\n",
      "    com.apple.quicktime.creationdate: 2021-11-28T16:20:19-0800\n",
      "    encoder         : Lavf58.29.100\n",
      "    Stream #0:0(und): Video: mjpeg, yuvj420p(pc), 427x240, q=2-31, 200 kb/s, 30 fps, 30 tbn, 30 tbc (default)\n",
      "    Metadata:\n",
      "      creation_time   : 2021-11-29T00:35:14.000000Z\n",
      "      handler_name    : Core Media Video\n",
      "      encoder         : Lavc58.54.100 mjpeg\n",
      "    Side data:\n",
      "      cpb: bitrate max/min/avg: 0/0/200000 buffer size: 0 vbv_delay: -1\n",
      "Input #0, mov,mp4,m4a,3gp,3g2,mj2, from '/home/shared/workspace/rose_ntu_dataset/our_videos/backPain/S001C001P002R001A046_rgb.avi':\n",
      "  Metadata:\n",
      "    major_brand     : qt  \n",
      "    minor_version   : 0\n",
      "    compatible_brands: qt  \n",
      "    creation_time   : 2021-11-29T00:35:11.000000Z\n",
      "    com.apple.quicktime.make: Apple\n",
      "    com.apple.quicktime.model: iPhone SE (2nd generation)\n",
      "    com.apple.quicktime.software: 14.8.1\n",
      "    com.apple.quicktime.creationdate: 2021-11-28T16:18:11-0800\n",
      "    com.apple.photos.originating.signature: Af5Feg1MibAQeXwnyMa7TUZyMwLE\n",
      "  Duration: 00:00:02.97, start: 0.000000, bitrate: 15374 kb/s\n",
      "    Stream #0:0(und): Video: h264 (High) (avc1 / 0x31637661), yuv420p(tv, bt709), 1920x1080, 15325 kb/s, 30 fps, 30 tbr, 600 tbn, 1200 tbc (default)\n",
      "    Metadata:\n",
      "      creation_time   : 2021-11-29T00:35:11.000000Z\n",
      "      handler_name    : Core Media Video\n",
      "      encoder         : H.264\n",
      "    Stream #0:1(und): Data: none (mebx / 0x7862656D), 0 kb/s (default)\n",
      "    Metadata:\n",
      "      creation_time   : 2021-11-29T00:35:11.000000Z\n",
      "      handler_name    : Core Media Metadata\n",
      "    Stream #0:2(und): Data: none (mebx / 0x7862656D), 0 kb/s (default)\n",
      "    Metadata:\n",
      "      creation_time   : 2021-11-29T00:35:11.000000Z\n",
      "      handler_name    : Core Media Metadata\n",
      "    Stream #0:3(und): Data: none (mebx / 0x7862656D), 34 kb/s (default)\n",
      "    Metadata:\n",
      "      creation_time   : 2021-11-29T00:35:11.000000Z\n",
      "      handler_name    : Core Media Metadata\n",
      "Stream mapping:\n",
      "  Stream #0:0 -> #0:0 (h264 (native) -> mjpeg (native))\n",
      "Press [q] to stop, [?] for help\n",
      "\u001b[1;34m[swscaler @ 0x55d0a57c6500] \u001b[0m\u001b[0;33mdeprecated pixel format used, make sure you did set range correctly\n",
      "\u001b[0mOutput #0, image2, to 'our_data/jpg/backPain/S001C001P002R001A046_rgb/image_%05d.jpg':\n",
      "  Metadata:\n",
      "    major_brand     : qt  \n",
      "    minor_version   : 0\n",
      "    compatible_brands: qt  \n",
      "    com.apple.photos.originating.signature: Af5Feg1MibAQeXwnyMa7TUZyMwLE\n",
      "    com.apple.quicktime.make: Apple\n",
      "    com.apple.quicktime.model: iPhone SE (2nd generation)\n",
      "    com.apple.quicktime.software: 14.8.1\n",
      "    com.apple.quicktime.creationdate: 2021-11-28T16:18:11-0800\n",
      "    encoder         : Lavf58.29.100\n",
      "    Stream #0:0(und): Video: mjpeg, yuvj420p(pc), 427x240, q=2-31, 200 kb/s, 30 fps, 30 tbn, 30 tbc (default)\n",
      "    Metadata:\n",
      "      creation_time   : 2021-11-29T00:35:11.000000Z\n",
      "      handler_name    : Core Media Video\n",
      "      encoder         : Lavc58.54.100 mjpeg\n",
      "    Side data:\n",
      "      cpb: bitrate max/min/avg: 0/0/200000 buffer size: 0 vbv_delay: -1\n",
      "['ffmpeg', '-i', '/home/shared/workspace/rose_ntu_dataset/our_videos/chestPain/S001C001P002R001A045_rgb.avi', '-vf', 'scale=-1:240', '-threads', '1', 'our_data/jpg/chestPain/S001C001P002R001A045_rgb/image_%05d.jpg']\n",
      "ffmpeg version 4.2 Copyright (c) 2000-2019 the FFmpeg developers\n",
      "  built with gcc 7.3.0 (crosstool-NG 1.23.0.449-a04d0)\n",
      "  configuration: --prefix=/home/ubuntu/anaconda3 --cc=/home/conda/feedstock_root/build_artifacts/ffmpeg_1566210161358/_build_env/bin/x86_64-conda_cos6-linux-gnu-cc --disable-doc --disable-openssl --enable-avresample --enable-gnutls --enable-gpl --enable-hardcoded-tables --enable-libfreetype --enable-libopenh264 --enable-libx264 --enable-pic --enable-pthreads --enable-shared --enable-static --enable-version3 --enable-zlib --enable-libmp3lame\n",
      "  libavutil      56. 31.100 / 56. 31.100\n",
      "  libavcodec     58. 54.100 / 58. 54.100\n",
      "  libavformat    58. 29.100 / 58. 29.100\n",
      "  libavdevice    58.  8.100 / 58.  8.100\n",
      "  libavfilter     7. 57.100 /  7. 57.100\n",
      "  libavresample   4.  0.  0 /  4.  0.  0\n",
      "  libswscale      5.  5.100 /  5.  5.100\n",
      "  libswresample   3.  5.100 /  3.  5.100\n",
      "  libpostproc    55.  5.100 / 55.  5.100\n",
      "Input #0, mov,mp4,m4a,3gp,3g2,mj2, from '/home/shared/workspace/rose_ntu_dataset/our_videos/chestPain/S001C001P002R001A045_rgb.avi':\n",
      "  Metadata:\n",
      "    major_brand     : qt  \n",
      "    minor_version   : 0\n",
      "    compatible_brands: qt  \n",
      "    creation_time   : 2021-11-29T00:35:10.000000Z\n",
      "    com.apple.quicktime.make: Apple\n",
      "    com.apple.quicktime.model: iPhone SE (2nd generation)\n",
      "    com.apple.quicktime.software: 14.8.1\n",
      "    com.apple.quicktime.creationdate: 2021-11-28T16:17:53-0800\n",
      "    com.apple.photos.originating.signature: AXLYk5M9sH7dhuB7DPdycHoh891S\n",
      "  Duration: 00:00:03.30, start: 0.000000, bitrate: 15518 kb/s\n",
      "    Stream #0:0(und): Video: h264 (High) (avc1 / 0x31637661), yuv420p(tv, bt709), 1920x1080, 15465 kb/s, 30.02 fps, 30 tbr, 600 tbn, 1200 tbc (default)\n",
      "    Metadata:\n",
      "      creation_time   : 2021-11-29T00:35:10.000000Z\n",
      "      handler_name    : Core Media Video\n",
      "      encoder         : H.264\n",
      "    Stream #0:1(und): Data: none (mebx / 0x7862656D), 0 kb/s (default)\n",
      "    Metadata:\n",
      "      creation_time   : 2021-11-29T00:35:10.000000Z\n",
      "      handler_name    : Core Media Metadata\n",
      "    Stream #0:2(und): Data: none (mebx / 0x7862656D), 2 kb/s (default)\n",
      "    Metadata:\n",
      "      creation_time   : 2021-11-29T00:35:10.000000Z\n",
      "      handler_name    : Core Media Metadata\n",
      "    Stream #0:3(und): Data: none (mebx / 0x7862656D), 35 kb/s (default)\n",
      "    Metadata:\n",
      "      creation_time   : 2021-11-29T00:35:10.000000Z\n",
      "      handler_name    : Core Media Metadata\n",
      "Stream mapping:\n",
      "  Stream #0:0 -> #0:0 (h264 (native) -> mjpeg (native))\n",
      "Press [q] to stop, [?] for help\n"
     ]
    },
    {
     "name": "stdout",
     "output_type": "stream",
     "text": [
      "\u001b[1;34m[swscaler @ 0x562333817f40] \u001b[0m\u001b[0;33mdeprecated pixel format used, make sure you did set range correctly\n",
      "\u001b[0mOutput #0, image2, to 'our_data/jpg/chestPain/S001C001P002R001A045_rgb/image_%05d.jpg':\n",
      "  Metadata:\n",
      "    major_brand     : qt  \n",
      "    minor_version   : 0\n",
      "    compatible_brands: qt  \n",
      "    com.apple.photos.originating.signature: AXLYk5M9sH7dhuB7DPdycHoh891S\n",
      "    com.apple.quicktime.make: Apple\n",
      "    com.apple.quicktime.model: iPhone SE (2nd generation)\n",
      "    com.apple.quicktime.software: 14.8.1\n",
      "    com.apple.quicktime.creationdate: 2021-11-28T16:17:53-0800\n",
      "    encoder         : Lavf58.29.100\n",
      "    Stream #0:0(und): Video: mjpeg, yuvj420p(pc), 427x240, q=2-31, 200 kb/s, 30 fps, 30 tbn, 30 tbc (default)\n",
      "    Metadata:\n",
      "      creation_time   : 2021-11-29T00:35:10.000000Z\n",
      "      handler_name    : Core Media Video\n",
      "      encoder         : Lavc58.54.100 mjpeg\n",
      "    Side data:\n",
      "      cpb: bitrate max/min/avg: 0/0/200000 buffer size: 0 vbv_delay: -1\n",
      "frame=   75 fps= 40 q=24.8 Lsize=N/A time=00:00:02.50 bitrate=N/A speed=1.35x    \n",
      "video:481kB audio:0kB subtitle:0kB other streams:0kB global headers:0kB muxing overhead: unknown\n",
      "\n",
      "\n",
      "['ffmpeg', '-i', '/home/shared/workspace/rose_ntu_dataset/our_videos/headache/S001C001P001R001A044_rgb.avi', '-vf', 'scale=-1:240', '-threads', '1', 'our_data/jpg/headache/S001C001P001R001A044_rgb/image_%05d.jpg']\n",
      "ffmpeg version 4.2 Copyright (c) 2000-2019 the FFmpeg developers\n",
      "  built with gcc 7.3.0 (crosstool-NG 1.23.0.449-a04d0)\n",
      "  configuration: --prefix=/home/ubuntu/anaconda3 --cc=/home/conda/feedstock_root/build_artifacts/ffmpeg_1566210161358/_build_env/bin/x86_64-conda_cos6-linux-gnu-cc --disable-doc --disable-openssl --enable-avresample --enable-gnutls --enable-gpl --enable-hardcoded-tables --enable-libfreetype --enable-libopenh264 --enable-libx264 --enable-pic --enable-pthreads --enable-shared --enable-static --enable-version3 --enable-zlib --enable-libmp3lame\n",
      "  libavutil      56. 31.100 / 56. 31.100\n",
      "  libavcodec     58. 54.100 / 58. 54.100\n",
      "  libavformat    58. 29.100 / 58. 29.100\n",
      "  libavdevice    58.  8.100 / 58.  8.100\n",
      "  libavfilter     7. 57.100 /  7. 57.100\n",
      "  libavresample   4.  0.  0 /  4.  0.  0\n",
      "  libswscale      5.  5.100 /  5.  5.100\n",
      "  libswresample   3.  5.100 /  3.  5.100\n",
      "  libpostproc    55.  5.100 / 55.  5.100\n",
      "Input #0, mov,mp4,m4a,3gp,3g2,mj2, from '/home/shared/workspace/rose_ntu_dataset/our_videos/headache/S001C001P001R001A044_rgb.avi':\n",
      "  Metadata:\n",
      "    major_brand     : qt  \n",
      "    minor_version   : 0\n",
      "    compatible_brands: qt  \n",
      "    creation_time   : 2021-11-29T00:35:01.000000Z\n",
      "    com.apple.quicktime.make: Apple\n",
      "    com.apple.quicktime.model: iPhone SE (2nd generation)\n",
      "    com.apple.quicktime.software: 14.8.1\n",
      "    com.apple.quicktime.creationdate: 2021-11-28T16:05:26-0800\n",
      "    com.apple.photos.originating.signature: AaoaRNT25ACI6kHQrmpAzI22ypAA\n",
      "  Duration: 00:00:02.72, start: 0.000000, bitrate: 15347 kb/s\n",
      "    Stream #0:0(und): Video: h264 (High) (avc1 / 0x31637661), yuv420p(tv, bt709), 1920x1080, 15292 kb/s, 30.11 fps, 30 tbr, 600 tbn, 1200 tbc (default)\n",
      "    Metadata:\n",
      "      creation_time   : 2021-11-29T00:35:01.000000Z\n",
      "      handler_name    : Core Media Video\n",
      "      encoder         : H.264\n",
      "    Stream #0:1(und): Data: none (mebx / 0x7862656D), 0 kb/s (default)\n",
      "    Metadata:\n",
      "      creation_time   : 2021-11-29T00:35:01.000000Z\n",
      "      handler_name    : Core Media Metadata\n",
      "    Stream #0:2(und): Data: none (mebx / 0x7862656D), 2 kb/s (default)\n",
      "    Metadata:\n",
      "      creation_time   : 2021-11-29T00:35:01.000000Z\n",
      "      handler_name    : Core Media Metadata\n",
      "    Stream #0:3(und): Data: none (mebx / 0x7862656D), 35 kb/s (default)\n",
      "    Metadata:\n",
      "      creation_time   : 2021-11-29T00:35:01.000000Z\n",
      "      handler_name    : Core Media Metadata\n",
      "Stream mapping:\n",
      "  Stream #0:0 -> #0:0 (h264 (native) -> mjpeg (native))\n",
      "Press [q] to stop, [?] for help\n",
      "\u001b[1;34m[swscaler @ 0x55c642802400] \u001b[0m\u001b[0;33mdeprecated pixel format used, make sure you did set range correctly\n",
      "\u001b[0mOutput #0, image2, to 'our_data/jpg/headache/S001C001P001R001A044_rgb/image_%05d.jpg':\n",
      "  Metadata:\n",
      "    major_brand     : qt  \n",
      "    minor_version   : 0\n",
      "    compatible_brands: qt  \n",
      "    com.apple.photos.originating.signature: AaoaRNT25ACI6kHQrmpAzI22ypAA\n",
      "    com.apple.quicktime.make: Apple\n",
      "    com.apple.quicktime.model: iPhone SE (2nd generation)\n",
      "    com.apple.quicktime.software: 14.8.1\n",
      "    com.apple.quicktime.creationdate: 2021-11-28T16:05:26-0800\n",
      "    encoder         : Lavf58.29.100\n",
      "    Stream #0:0(und): Video: mjpeg, yuvj420p(pc), 427x240, q=2-31, 200 kb/s, 30 fps, 30 tbn, 30 tbc (default)\n",
      "    Metadata:\n",
      "      creation_time   : 2021-11-29T00:35:01.000000Z\n",
      "      handler_name    : Core Media Video\n",
      "      encoder         : Lavc58.54.100 mjpeg\n",
      "    Side data:\n",
      "      cpb: bitrate max/min/avg: 0/0/200000 buffer size: 0 vbv_delay: -1\n",
      "frame=  110 fps= 44 q=24.8 Lsize=N/A time=00:00:03.66 bitrate=N/A speed=1.48x    \n",
      "video:669kB audio:0kB subtitle:0kB other streams:0kB global headers:0kB muxing overhead: unknown\n",
      "\n",
      "\n",
      "['ffmpeg', '-i', '/home/shared/workspace/rose_ntu_dataset/our_videos/nauseaVomiting/S001C001P001R001A048_rgb.avi', '-vf', 'scale=-1:240', '-threads', '1', 'our_data/jpg/nauseaVomiting/S001C001P001R001A048_rgb/image_%05d.jpg']\n",
      "ffmpeg version 4.2frame=   89 fps= 40 q=24.8 Lsize=N/A time=00:00:02.96 bitrate=N/A speed=1.32x    \n",
      "video:572kB audio:0kB subtitle:0kB other streams:0kB global headers:0kB muxing overhead: unknown\n",
      " Copyright (c) 2000-2019 the FFmpeg developers\n",
      "  built with gcc 7.3.0 (crosstool-NG 1.23.0.449-a04d0)\n",
      "  configuration: --prefix=/home/ubuntu/anaconda3 --cc=/home/conda/feedstock_root/build_artifacts/ffmpeg_1566210161358/_build_env/bin/x86_64-conda_cos6-linux-gnu-cc --disable-doc --disable-openssl --enable-avresample --enable-gnutls --enable-gpl --enable-hardcoded-tables --enable-libfreetype --enable-libopenh264 --enable-libx264 --enable-pic --enable-pthreads --enable-shared --enable-static --enable-version3 --enable-zlib --enable-libmp3lame\n",
      "  libavutil      56. 31.100 / 56. 31.100\n",
      "  libavcodec     58. 54.100 / 58. 54.100\n",
      "  libavformat    58. 29.100 / 58. 29.100\n",
      "  libavdevice    58.  8.100 / 58.  8.100\n",
      "  libavfilter     7. 57.100 /  7. 57.100\n",
      "  libavresample   4.  0.  0 /  4.  0.  0\n",
      "  libswscale      5.  5.100 /  5.  5.100\n",
      "  libswresample   3.  5.100 /  3.  5.100\n",
      "  libpostproc    55.  5.100 / 55.  5.100\n",
      "\n",
      "\n",
      "Input #0, mov,mp4,m4a,3gp,3g2,mj2, from '/home/shared/workspace/rose_ntu_dataset/our_videos/nauseaVomiting/S001C001P001R001A048_rgb.avi':\n",
      "  Metadata:\n",
      "    major_brand     : qt  \n",
      "    minor_version   : 0\n",
      "    compatible_brands: qt  \n",
      "    creation_time   : 2021-11-29T00:35:04.000000Z\n",
      "    com.apple.quicktime.make: Apple\n",
      "    com.apple.quicktime.model: iPhone SE (2nd generation)\n",
      "    com.apple.quicktime.software: 14.8.1\n",
      "    com.apple.quicktime.creationdate: 2021-11-28T16:10:45-0800\n",
      "    com.apple.photos.originating.signature: AU1Ck2oRTFTX5YPvSZ3x7+nLvbvg\n",
      "  Duration: 00:00:03.23, start: 0.000000, bitrate: 15576 kb/s\n",
      "    Stream #0:0(und): Video: h264 (High) (avc1 / 0x31637661), yuv420p(tv, bt709), 1920x1080, 15525 kb/s, 30.05 fps, 30 tbr, 600 tbn, 1200 tbc (default)\n",
      "    Metadata:\n",
      "      creation_time   : 2021-11-29T00:35:04.000000Z\n",
      "      handler_name    : Core Media Video\n",
      "      encoder         : H.264\n",
      "    Stream #0:1(und): Data: none (mebx / 0x7862656D), 0 kb/s (default)\n",
      "    Metadata:\n",
      "      creation_time   : 2021-11-29T00:35:04.000000Z\n",
      "      handler_name    : Core Media Metadata\n",
      "    Stream #0:2(und): Data: none (mebx / 0x7862656D), 0 kb/s (default)\n",
      "    Metadata:\n",
      "      creation_time   : 2021-11-29T00:35:05.000000Z\n",
      "      handler_name    : Core Media Metadata\n",
      "    Stream #0:3(und): Data: none (mebx / 0x7862656D), 34 kb/s (default)\n",
      "    Metadata:\n",
      "      creation_time   : 2021-11-29T00:35:05.000000Z\n",
      "      handler_name    : Core Media Metadata\n",
      "Stream mapping:\n",
      "['ffmpeg', '-i', '/home/shared/workspace/rose_ntu_dataset/our_videos/neckPain/S001C001P001R001A047_rgb.avi', '-vf', 'scale=-1:240', '-threads', '1', 'our_data/jpg/neckPain/S001C001P001R001A047_rgb/image_%05d.jpg']\n",
      "  Stream #0:0 -> #0:0 (h264 (native) -> mjpeg (native))\n",
      "Press [q] to stop, [?] for help\n",
      "ffmpeg version 4.2 Copyright (c) 2000-2019 the FFmpeg developers\n",
      "  built with gcc 7.3.0 (crosstool-NG 1.23.0.449-a04d0)\n",
      "  configuration: --prefix=/home/ubuntu/anaconda3 --cc=/home/conda/feedstock_root/build_artifacts/ffmpeg_1566210161358/_build_env/bin/x86_64-conda_cos6-linux-gnu-cc --disable-doc --disable-openssl --enable-avresample --enable-gnutls --enable-gpl --enable-hardcoded-tables --enable-libfreetype --enable-libopenh264 --enable-libx264 --enable-pic --enable-pthreads --enable-shared --enable-static --enable-version3 --enable-zlib --enable-libmp3lame\n",
      "  libavutil      56. 31.100 / 56. 31.100\n",
      "  libavcodec     58. 54.100 / 58. 54.100\n",
      "  libavformat    58. 29.100 / 58. 29.100\n",
      "  libavdevice    58.  8.100 / 58.  8.100\n",
      "  libavfilter     7. 57.100 /  7. 57.100\n",
      "  libavresample   4.  0.  0 /  4.  0.  0\n",
      "  libswscale      5.  5.100 /  5.  5.100\n",
      "  libswresample   3.  5.100 /  3.  5.100\n",
      "  libpostproc    55.  5.100 / 55.  5.100\n"
     ]
    },
    {
     "name": "stdout",
     "output_type": "stream",
     "text": [
      "\u001b[1;34m[swscaler @ 0x55af85df01c0] \u001b[0m\u001b[0;33mdeprecated pixel format used, make sure you did set range correctly\n",
      "\u001b[0mOutput #0, image2, to 'our_data/jpg/nauseaVomiting/S001C001P001R001A048_rgb/image_%05d.jpg':\n",
      "  Metadata:\n",
      "    major_brand     : qt  \n",
      "    minor_version   : 0\n",
      "    compatible_brands: qt  \n",
      "    com.apple.photos.originating.signature: AU1Ck2oRTFTX5YPvSZ3x7+nLvbvg\n",
      "    com.apple.quicktime.make: Apple\n",
      "    com.apple.quicktime.model: iPhone SE (2nd generation)\n",
      "    com.apple.quicktime.software: 14.8.1\n",
      "    com.apple.quicktime.creationdate: 2021-11-28T16:10:45-0800\n",
      "    encoder         : Lavf58.29.100\n",
      "    Stream #0:0(und): Video: mjpeg, yuvj420p(pc), 427x240, q=2-31, 200 kb/s, 30 fps, 30 tbn, 30 tbc (default)\n",
      "    Metadata:\n",
      "      creation_time   : 2021-11-29T00:35:04.000000Z\n",
      "      handler_name    : Core Media Video\n",
      "      encoder         : Lavc58.54.100 mjpeg\n",
      "    Side data:\n",
      "      cpb: bitrate max/min/avg: 0/0/200000 buffer size: 0 vbv_delay: -1\n",
      "Input #0, mov,mp4,m4a,3gp,3g2,mj2, from '/home/shared/workspace/rose_ntu_dataset/our_videos/neckPain/S001C001P001R001A047_rgb.avi':\n",
      "  Metadata:\n",
      "    major_brand     : qt  \n",
      "    minor_version   : 0\n",
      "    compatible_brands: qt  \n",
      "    creation_time   : 2021-11-29T00:35:04.000000Z\n",
      "    com.apple.quicktime.make: Apple\n",
      "    com.apple.quicktime.model: iPhone SE (2nd generation)\n",
      "    com.apple.quicktime.software: 14.8.1\n",
      "    com.apple.quicktime.creationdate: 2021-11-28T16:09:03-0800\n",
      "    com.apple.photos.originating.signature: Af/hXgUOOdp2qvfvmaVq93jd08hx\n",
      "  Duration: 00:00:02.75, start: 0.000000, bitrate: 15277 kb/s\n",
      "    Stream #0:0(und): Video: h264 (High) (avc1 / 0x31637661), yuv420p(tv, bt709), 1920x1080, 15221 kb/s, 30.56 fps, 30 tbr, 600 tbn, 1200 tbc (default)\n",
      "    Metadata:\n",
      "      creation_time   : 2021-11-29T00:35:04.000000Z\n",
      "      handler_name    : Core Media Video\n",
      "      encoder         : H.264\n",
      "    Stream #0:1(und): Data: none (mebx / 0x7862656D), 0 kb/s (default)\n",
      "    Metadata:\n",
      "      creation_time   : 2021-11-29T00:35:04.000000Z\n",
      "      handler_name    : Core Media Metadata\n",
      "    Stream #0:2(und): Data: none (mebx / 0x7862656D), 2 kb/s (default)\n",
      "    Metadata:\n",
      "      creation_time   : 2021-11-29T00:35:04.000000Z\n",
      "      handler_name    : Core Media Metadata\n",
      "    Stream #0:3(und): Data: none (mebx / 0x7862656D), 35 kb/s (default)\n",
      "    Metadata:\n",
      "      creation_time   : 2021-11-29T00:35:04.000000Z\n",
      "      handler_name    : Core Media Metadata\n",
      "Stream mapping:\n",
      "  Stream #0:0 -> #0:0 (h264 (native) -> mjpeg (native))\n",
      "Press [q] to stop, [?] for help\n",
      "\u001b[1;34m[swscaler @ 0x558bf5d61440] \u001b[0m\u001b[0;33mdeprecated pixel format used, make sure you did set range correctly\n",
      "\u001b[0mOutput #0, image2, to 'our_data/jpg/neckPain/S001C001P001R001A047_rgb/image_%05d.jpg':\n",
      "  Metadata:\n",
      "    major_brand     : qt  \n",
      "    minor_version   : 0\n",
      "    compatible_brands: qt  \n",
      "    com.apple.photos.originating.signature: Af/hXgUOOdp2qvfvmaVq93jd08hx\n",
      "    com.apple.quicktime.make: Apple\n",
      "    com.apple.quicktime.model: iPhone SE (2nd generation)\n",
      "    com.apple.quicktime.software: 14.8.1\n",
      "    com.apple.quicktime.creationdate: 2021-11-28T16:09:03-0800\n",
      "    encoder         : Lavf58.29.100\n",
      "    Stream #0:0(und): Video: mjpeg, yuvj420p(pc), 427x240, q=2-31, 200 kb/s, 30 fps, 30 tbn, 30 tbc (default)\n",
      "    Metadata:\n",
      "      creation_time   : 2021-11-29T00:35:04.000000Z\n",
      "      handler_name    : Core Media Video\n",
      "      encoder         : Lavc58.54.100 mjpeg\n",
      "    Side data:\n",
      "      cpb: bitrate max/min/avg: 0/0/200000 buffer size: 0 vbv_delay: -1\n",
      "frame=   99 fps= 39 q=24.8 Lsize=N/A time=00:00:03.30 bitrate=N/A speed=1.31x    \n",
      "video:619kB audio:0kB subtitle:0kB other streams:0kB global headers:0kB muxing overhead: unknown\n",
      "\n",
      "\n",
      "['ffmpeg', '-i', '/home/shared/workspace/rose_ntu_dataset/our_videos/sneezeCough/S001C001P001R001A041_rgb.avi', '-vf', 'scale=-1:240', '-threads', '1', 'our_data/jpg/sneezeCough/S001C001P001R001A041_rgb/image_%05d.jpg']\n",
      "ffmpeg version 4.2 Copyright (c) 2000-2019 the FFmpeg developers\n",
      "  built with gcc 7.3.0 (crosstool-NG 1.23.0.449-a04d0)\n",
      "  configuration: --prefix=/home/ubuntu/anaconda3 --cc=/home/conda/feedstock_root/build_artifacts/ffmpeg_1566210161358/_build_env/bin/x86_64-conda_cos6-linux-gnu-cc --disable-doc --disable-openssl --enable-avresample --enable-gnutls --enable-gpl --enable-hardcoded-tables --enable-libfreetype --enable-libopenh264 --enable-libx264 --enable-pic --enable-pthreads --enable-shared --enable-static --enable-version3 --enable-zlib --enable-libmp3lame\n",
      "  libavutil      56. 31.100 / 56. 31.100\n",
      "  libavcodec     58. 54.100 / 58. 54.100\n",
      "  libavformat    58. 29.100 / 58. 29.100\n",
      "  libavdevice    58.  8.100 / 58.  8.100\n",
      "  libavfilter     7. 57.100 /  7. 57.100\n",
      "  libavresample   4.  0.  0 /  4.  0.  0\n",
      "  libswscale      5.  5.100 /  5.  5.100\n",
      "  libswresample   3.  5.100 /  3.  5.100\n",
      "  libpostproc    55.  5.100 / 55.  5.100\n",
      "Input #0, mov,mp4,m4a,3gp,3g2,mj2, from '/home/shared/workspace/rose_ntu_dataset/our_videos/sneezeCough/S001C001P001R001A041_rgb.avi':\n",
      "  Metadata:\n",
      "    major_brand     : qt  \n",
      "    minor_version   : 0\n",
      "    compatible_brands: qt  \n",
      "    creation_time   : 2021-11-29T00:34:59.000000Z\n",
      "    com.apple.quicktime.make: Apple\n",
      "    com.apple.quicktime.model: iPhone SE (2nd generation)\n",
      "    com.apple.quicktime.software: 14.8.1\n",
      "    com.apple.quicktime.creationdate: 2021-11-28T16:03:08-0800\n",
      "    com.apple.photos.originating.signature: Ab/mTSjDhrVPMLcNFXye0XnwJVSF\n",
      "  Duration: 00:00:01.38, start: 0.000000, bitrate: 16096 kb/s\n",
      "    Stream #0:0(und): Video: h264 (High) (avc1 / 0x31637661), yuv420p(tv, bt709), 1920x1080, 16021 kb/s, 31.20 fps, 30 tbr, 600 tbn, 1200 tbc (default)\n",
      "    Metadata:\n",
      "      creation_time   : 2021-11-29T00:34:59.000000Z\n",
      "      handler_name    : Core Media Video\n",
      "      encoder         : H.264\n",
      "    Stream #0:1(und): Data: none (mebx / 0x7862656D), 0 kb/s (default)\n",
      "    Metadata:\n",
      "      creation_time   : 2021-11-29T00:34:59.000000Z\n",
      "      handler_name    : Core Media Metadata\n",
      "    Stream #0:2(und): Data: none (mebx / 0x7862656D), 7 kb/s (default)\n",
      "    Metadata:\n",
      "      creation_time   : 2021-11-29T00:34:59.000000Z\n",
      "      handler_name    : Core Media Metadata\n",
      "    Stream #0:3(und): Data: none (mebx / 0x7862656D), 37 kb/s (default)\n",
      "    Metadata:\n",
      "      creation_time   : 2021-11-29T00:34:59.000000Z\n",
      "      handler_name    : Core Media Metadata\n",
      "Stream mapping:\n",
      "  Stream #0:0 -> #0:0 (h264 (native) -> mjpeg (native))\n",
      "Press [q] to stop, [?] for help\n",
      "\u001b[1;34m[swscaler @ 0x55f32fa33380] \u001b[0m\u001b[0;33mdeprecated pixel format used, make sure you did set range correctly\n",
      "\u001b[0mOutput #0, image2, to 'our_data/jpg/sneezeCough/S001C001P001R001A041_rgb/image_%05d.jpg':\n",
      "  Metadata:\n",
      "    major_brand     : qt  \n",
      "    minor_version   : 0\n",
      "    compatible_brands: qt  \n",
      "    com.apple.photos.originating.signature: Ab/mTSjDhrVPMLcNFXye0XnwJVSF\n",
      "    com.apple.quicktime.make: Apple\n",
      "    com.apple.quicktime.model: iPhone SE (2nd generation)\n",
      "    com.apple.quicktime.software: 14.8.1\n",
      "    com.apple.quicktime.creationdate: 2021-11-28T16:03:08-0800\n",
      "    encoder         : Lavf58.29.100\n",
      "    Stream #0:0(und): Video: mjpeg, yuvj420p(pc), 427x240, q=2-31, 200 kb/s, 30 fps, 30 tbn, 30 tbc (default)\n",
      "    Metadata:\n",
      "      creation_time   : 2021-11-29T00:34:59.000000Z\n",
      "      handler_name    : Core Media Video\n",
      "      encoder         : Lavc58.54.100 mjpeg\n",
      "    Side data:\n",
      "      cpb: bitrate max/min/avg: 0/0/200000 buffer size: 0 vbv_delay: -1\n",
      "frame=   82 fps= 42 q=24.8 Lsize=N/A time=00:00:02.73 bitrate=N/A speed=1.39x    \n",
      "video:554kB audio:0kB subtitle:0kB other streams:0kB global headers:0kB muxing overhead: unknown\n",
      "\n",
      "\n",
      "['ffmpeg', '-i', '/home/shared/workspace/rose_ntu_dataset/our_videos/headache/S001C001P002R001A044_rgb.avi', '-vf', 'scale=-1:240', '-threads', '1', 'our_data/jpg/headache/S001C001P002R001A044_rgb/image_%05d.jpg']\n",
      "ffmpeg version 4.2 Copyright (c) 2000-2019 the FFmpeg developers speed= 1.3x    \n",
      "  built with gcc 7.3.0 (crosstool-NG 1.23.0.449-a04d0)\n",
      "  configuration: --prefix=/home/ubuntu/anaconda3 --cc=/home/conda/feedstock_root/build_artifacts/ffmpeg_1566210161358/_build_env/bin/x86_64-conda_cos6-linux-gnu-cc --disable-doc --disable-openssl --enable-avresample --enable-gnutls --enable-gpl --enable-hardcoded-tables --enable-libfreetype --enable-libopenh264 --enable-libx264 --enable-pic --enable-pthreads --enable-shared --enable-static --enable-version3 --enable-zlib --enable-libmp3lame\n",
      "  libavutil      56. 31.100 / 56. 31.100\n",
      "  libavcodec     58. 54.100 / 58. 54.100\n",
      "  libavformat    58. 29.100 / 58. 29.100\n",
      "  libavdevice    58.  8.100 / 58.  8.100\n",
      "  libavfilter     7. 57.100 /  7. 57.100\n",
      "  libavresample   4.  0.  0 /  4.  0.  0\n",
      "  libswscale      5.  5.100 /  5.  5.100\n",
      "  libswresample   3.  5.100 /  3.  5.100\n",
      "  libpostproc    55.  5.100 / 55.  5.100\n"
     ]
    },
    {
     "name": "stdout",
     "output_type": "stream",
     "text": [
      "Input #0, mov,mp4,m4a,3gp,3g2,mj2, from '/home/shared/workspace/rose_ntu_dataset/our_videos/headache/S001C001P002R001A044_rgb.avi':\n",
      "  Metadata:\n",
      "    major_brand     : qt  \n",
      "    minor_version   : 0\n",
      "    compatible_brands: qt  \n",
      "    creation_time   : 2021-11-29T00:35:09.000000Z\n",
      "    com.apple.quicktime.make: Apple\n",
      "    com.apple.quicktime.model: iPhone SE (2nd generation)\n",
      "    com.apple.quicktime.software: 14.8.1\n",
      "    com.apple.quicktime.creationdate: 2021-11-28T16:17:20-0800\n",
      "    com.apple.photos.originating.signature: AUGP6lEbj1Mdo/zVWAnV9ohi3h1F\n",
      "  Duration: 00:00:03.13, start: 0.000000, bitrate: 15460 kb/s\n",
      "    Stream #0:0(und): Video: h264 (High) (avc1 / 0x31637661), yuv420p(tv, bt709), 1920x1080, 15412 kb/s, 30 fps, 30 tbr, 600 tbn, 1200 tbc (default)\n",
      "    Metadata:\n",
      "      creation_time   : 2021-11-29T00:35:09.000000Z\n",
      "      handler_name    : Core Media Video\n",
      "      encoder         : H.264\n",
      "    Stream #0:1(und): Data: none (mebx / 0x7862656D), 0 kb/s (default)\n",
      "    Metadata:\n",
      "      creation_time   : 2021-11-29T00:35:09.000000Z\n",
      "      handler_name    : Core Media Metadata\n",
      "    Stream #0:2(und): Data: none (mebx / 0x7862656D), 0 kb/s (default)\n",
      "    Metadata:\n",
      "      creation_time   : 2021-11-29T00:35:09.000000Z\n",
      "      handler_name    : Core Media Metadata\n",
      "    Stream #0:3(und): Data: none (mebx / 0x7862656D), 34 kb/s (default)\n",
      "    Metadata:\n",
      "      creation_time   : 2021-11-29T00:35:09.000000Z\n",
      "      handler_name    : Core Media Metadata\n",
      "Stream mapping:\n",
      "  Stream #0:0 -> #0:0 (h264 (native) -> mjpeg (native))\n",
      "Press [q] to stop, [?] for help\n",
      "\u001b[1;34m[swscaler @ 0x55667232f900] \u001b[0m\u001b[0;33mdeprecated pixel format used, make sure you did set range correctly\n",
      "\u001b[0mOutput #0, image2, to 'our_data/jpg/headache/S001C001P002R001A044_rgb/image_%05d.jpg':\n",
      "  Metadata:\n",
      "    major_brand     : qt  \n",
      "    minor_version   : 0\n",
      "    compatible_brands: qt  \n",
      "    com.apple.photos.originating.signature: AUGP6lEbj1Mdo/zVWAnV9ohi3h1F\n",
      "    com.apple.quicktime.make: Apple\n",
      "    com.apple.quicktime.model: iPhone SE (2nd generation)\n",
      "    com.apple.quicktime.software: 14.8.1\n",
      "    com.apple.quicktime.creationdate: 2021-11-28T16:17:20-0800\n",
      "    encoder         : Lavf58.29.100\n",
      "    Stream #0:0(und): Video: mjpeg, yuvj420p(pc), 427x240, q=2-31, 200 kb/s, 30 fps, 30 tbn, 30 tbc (default)\n",
      "    Metadata:\n",
      "      creation_time   : 2021-11-29T00:35:09.000000Z\n",
      "      handler_name    : Core Media Video\n",
      "      encoder         : Lavc58.54.100 mjpeg\n",
      "    Side data:\n",
      "      cpb: bitrate max/min/avg: 0/0/200000 buffer size: 0 vbv_delay: -1\n",
      "frame=   43 fps= 32 q=24.8 Lsize=N/A time=00:00:01.43 bitrate=N/A speed=1.06x    \n",
      "video:312kB audio:0kB subtitle:0kB other streams:0kB global headers:0kB muxing overhead: unknown\n",
      "\n",
      "\n",
      "['ffmpeg', '-i', '/home/shared/workspace/rose_ntu_dataset/our_videos/sneezeCough/S001C001P002R001A041_rgb.avi', '-vf', 'scale=-1:240', '-threads', '1', 'our_data/jpg/sneezeCough/S001C001P002R001A041_rgb/image_%05d.jpg']\n",
      "ffmpeg version 4.2 Copyright (c) 2000-2019 the FFmpeg developers\n",
      "  built with gcc 7.3.0 (crosstool-NG 1.23.0.449-a04d0)\n",
      "  configuration: --prefix=/home/ubuntu/anaconda3 --cc=/home/conda/feedstock_root/build_artifacts/ffmpeg_1566210161358/_build_env/bin/x86_64-conda_cos6-linux-gnu-cc --disable-doc --disable-openssl --enable-avresample --enable-gnutls --enable-gpl --enable-hardcoded-tables --enable-libfreetype --enable-libopenh264 --enable-libx264 --enable-pic --enable-pthreads --enable-shared --enable-static --enable-version3 --enable-zlib --enable-libmp3lame\n",
      "  libavutil      56. 31.100 / 56. 31.100\n",
      "  libavcodec     58. 54.100 / 58. 54.100\n",
      "  libavformat    58. 29.100 / 58. 29.100\n",
      "  libavdevice    58.  8.100 / 58.  8.100\n",
      "  libavfilter     7. 57.100 /  7. 57.100\n",
      "  libavresample   4.  0.  0 /  4.  0.  0\n",
      "  libswscale      5.  5.100 /  5.  5.100\n",
      "  libswresample   3.  5.100 /  3.  5.100\n",
      "  libpostproc    55.  5.100 / 55.  5.100\n",
      "frame=   84 fps= 41 q=24.8 Lsize=N/A time=00:00:02.80 bitrate=N/A speed=1.38x    \n",
      "video:580kB audio:0kB subtitle:0kB other streams:0kB global headers:0kB muxing overhead: unknown\n",
      "\n",
      "\n",
      "Input #0, mov,mp4,m4a,3gp,3g2,mj2, from '/home/shared/workspace/rose_ntu_dataset/our_videos/sneezeCough/S001C001P002R001A041_rgb.avi':\n",
      "  Metadata:\n",
      "    major_brand     : qt  \n",
      "    minor_version   : 0\n",
      "    compatible_brands: qt  \n",
      "    creation_time   : 2021-11-29T00:35:07.000000Z\n",
      "    com.apple.quicktime.make: Apple\n",
      "    com.apple.quicktime.model: iPhone SE (2nd generation)\n",
      "    com.apple.quicktime.software: 14.8.1\n",
      "    com.apple.quicktime.creationdate: 2021-11-28T16:16:09-0800\n",
      "    com.apple.photos.originating.signature: ATAnCP2PBVOfL2Hdo7OSCMAmebl/\n",
      "  Duration: 00:00:02.47, start: 0.000000, bitrate: 15214 kb/s\n",
      "    Stream #0:0(und): Video: h264 (High) (avc1 / 0x31637661), yuv420p(tv, bt709), 1920x1080, 15145 kb/s, 30.34 fps, 30 tbr, 600 tbn, 1200 tbc (default)\n",
      "    Metadata:\n",
      "      creation_time   : 2021-11-29T00:35:07.000000Z\n",
      "      handler_name    : Core Media Video\n",
      "      encoder         : H.264\n",
      "    Stream #0:1(und): Data: none (mebx / 0x7862656D), 0 kb/s (default)\n",
      "    Metadata:\n",
      "      creation_time   : 2021-11-29T00:35:07.000000Z\n",
      "      handler_name    : Core Media Metadata\n",
      "    Stream #0:2(und): Data: none (mebx / 0x7862656D), 8 kb/s (default)\n",
      "    Metadata:\n",
      "      creation_time   : 2021-11-29T00:35:07.000000Z\n",
      "      handler_name    : Core Media Metadata\n",
      "    Stream #0:3(und): Data: none (mebx / 0x7862656D), 38 kb/s (default)\n",
      "    Metadata:\n",
      "      creation_time   : 2021-11-29T00:35:07.000000Z\n",
      "      handler_name    : Core Media Metadata\n",
      "Stream mapping:\n",
      "  Stream #0:0 -> #0:0 (h264 (native) -> mjpeg (native))\n",
      "Press [q] to stop, [?] for help\n",
      "frame=   97 fps= 43 q=24.8 Lsize=N/A time=00:00:03.23 bitrate=N/A speed=1.42x    \n",
      "video:635kB audio:0kB subtitle:0kB other streams:0kB global headers:0kB muxing overhead: unknown\n",
      "\n",
      "\n",
      "['ffmpeg', '-i', '/home/shared/workspace/rose_ntu_dataset/our_videos/neckPain/S001C001P002R001A047_rgb.avi', '-vf', 'scale=-1:240', '-threads', '1', 'our_data/jpg/neckPain/S001C001P002R001A047_rgb/image_%05d.jpg']\n",
      "ffmpeg version 4.2 Copyright (c) 2000-2019 the FFmpeg developers\n",
      "  built with gcc 7.3.0 (crosstool-NG 1.23.0.449-a04d0)\n",
      "  configuration: --prefix=/home/ubuntu/anaconda3 --cc=/home/conda/feedstock_root/build_artifacts/ffmpeg_1566210161358/_build_env/bin/x86_64-conda_cos6-linux-gnu-cc --disable-doc --disable-openssl --enable-avresample --enable-gnutls --enable-gpl --enable-hardcoded-tables --enable-libfreetype --enable-libopenh264 --enable-libx264 --enable-pic --enable-pthreads --enable-shared --enable-static --enable-version3 --enable-zlib --enable-libmp3lame\n",
      "  libavutil      56. 31.100 / 56. 31.100\n",
      "  libavcodec     58. 54.100 / 58. 54.100\n",
      "  libavformat    58. 29.100 / 58. 29.100\n",
      "  libavdevice    58.  8.100 / 58.  8.100\n",
      "  libavfilter     7. 57.100 /  7. 57.100\n",
      "  libavresample   4.  0.  0 /  4.  0.  0\n",
      "  libswscale      5.  5.100 /  5.  5.100\n",
      "  libswresample   3.  5.100 /  3.  5.100\n",
      "  libpostproc    55.  5.100 / 55.  5.100\n",
      "\u001b[1;34m[swscaler @ 0x558eb85ce280] \u001b[0m\u001b[0;33mdeprecated pixel format used, make sure you did set range correctly\n",
      "\u001b[0mOutput #0, image2, to 'our_data/jpg/sneezeCough/S001C001P002R001A041_rgb/image_%05d.jpg':\n",
      "  Metadata:\n",
      "    major_brand     : qt  \n",
      "    minor_version   : 0\n",
      "    compatible_brands: qt  \n",
      "    com.apple.photos.originating.signature: ATAnCP2PBVOfL2Hdo7OSCMAmebl/\n",
      "    com.apple.quicktime.make: Apple\n",
      "    com.apple.quicktime.model: iPhone SE (2nd generation)\n",
      "    com.apple.quicktime.software: 14.8.1\n",
      "    com.apple.quicktime.creationdate: 2021-11-28T16:16:09-0800\n",
      "    encoder         : Lavf58.29.100\n",
      "    Stream #0:0(und): Video: mjpeg, yuvj420p(pc), 427x240, q=2-31, 200 kb/s, 30 fps, 30 tbn, 30 tbc (default)\n",
      "    Metadata:\n",
      "      creation_time   : 2021-11-29T00:35:07.000000Z\n",
      "      handler_name    : Core Media Video\n",
      "      encoder         : Lavc58.54.100 mjpeg\n",
      "    Side data:\n",
      "      cpb: bitrate max/min/avg: 0/0/200000 buffer size: 0 vbv_delay: -1\n",
      "Input #0, mov,mp4,m4a,3gp,3g2,mj2, from '/home/shared/workspace/rose_ntu_dataset/our_videos/neckPain/S001C001P002R001A047_rgb.avi':\n",
      "  Metadata:\n",
      "    major_brand     : qt  \n",
      "    minor_version   : 0\n",
      "    compatible_brands: qt  \n",
      "    creation_time   : 2021-11-29T00:35:12.000000Z\n",
      "    com.apple.quicktime.make: Apple\n",
      "    com.apple.quicktime.model: iPhone SE (2nd generation)\n",
      "    com.apple.quicktime.software: 14.8.1\n",
      "    com.apple.quicktime.creationdate: 2021-11-28T16:18:29-0800\n",
      "    com.apple.photos.originating.signature: AXjm9+fbLrFn2s8Vfxqf35tbNW3q\n",
      "  Duration: 00:00:02.50, start: 0.000000, bitrate: 15539 kb/s\n",
      "    Stream #0:0(und): Video: h264 (High) (avc1 / 0x31637661), yuv420p(tv, bt709), 1920x1080, 15488 kb/s, 30 fps, 30 tbr, 600 tbn, 1200 tbc (default)\n",
      "    Metadata:\n",
      "      creation_time   : 2021-11-29T00:35:12.000000Z\n",
      "      handler_name    : Core Media Video\n",
      "      encoder         : H.264\n",
      "    Stream #0:1(und): Data: none (mebx / 0x7862656D), 0 kb/s (default)\n",
      "    Metadata:\n",
      "      creation_time   : 2021-11-29T00:35:12.000000Z\n",
      "      handler_name    : Core Media Metadata\n",
      "    Stream #0:2(und): Data: none (mebx / 0x7862656D), 0 kb/s (default)\n",
      "    Metadata:\n",
      "      creation_time   : 2021-11-29T00:35:12.000000Z\n",
      "      handler_name    : Core Media Metadata\n",
      "    Stream #0:3(und): Data: none (mebx / 0x7862656D), 34 kb/s (default)\n",
      "    Metadata:\n",
      "      creation_time   : 2021-11-29T00:35:12.000000Z\n",
      "      handler_name    : Core Media Metadata\n",
      "Stream mapping:\n",
      "  Stream #0:0 -> #0:0 (h264 (native) -> mjpeg (native))\n",
      "Press [q] to stop, [?] for help\n"
     ]
    },
    {
     "name": "stdout",
     "output_type": "stream",
     "text": [
      "['ffmpeg', '-i', '/home/shared/workspace/rose_ntu_dataset/our_videos/nauseaVomiting/S001C001P002R001A048_rgb.avi', '-vf', 'scale=-1:240', '-threads', '1', 'our_data/jpg/nauseaVomiting/S001C001P002R001A048_rgb/image_%05d.jpg']\n",
      "ffmpeg version 4.2 Copyright (c) 2000-2019 the FFmpeg developers\n",
      "  built with gcc 7.3.0 (crosstool-NG 1.23.0.449-a04d0)\n",
      "  configuration: --prefix=/home/ubuntu/anaconda3 --cc=/home/conda/feedstock_root/build_artifacts/ffmpeg_1566210161358/_build_env/bin/x86_64-conda_cos6-linux-gnu-cc --disable-doc --disable-openssl --enable-avresample --enable-gnutls --enable-gpl --enable-hardcoded-tables --enable-libfreetype --enable-libopenh264 --enable-libx264 --enable-pic --enable-pthreads --enable-shared --enable-static --enable-version3 --enable-zlib --enable-libmp3lame\n",
      "  libavutil      56. 31.100 / 56. 31.100\n",
      "  libavcodec     58. 54.100 / 58. 54.100\n",
      "  libavformat    58. 29.100 / 58. 29.100\n",
      "  libavdevice    58.  8.100 / 58.  8.100\n",
      "  libavfilter     7. 57.100 /  7. 57.100\n",
      "  libavresample   4.  0.  0 /  4.  0.  0\n",
      "  libswscale      5.  5.100 /  5.  5.100\n",
      "  libswresample   3.  5.100 /  3.  5.100\n",
      "  libpostproc    55.  5.100 / 55.  5.100\n",
      "\u001b[1;34m[swscaler @ 0x55cea38d6280] \u001b[0m\u001b[0;33mdeprecated pixel format used, make sure you did set range correctly\n",
      "\u001b[0mOutput #0, image2, to 'our_data/jpg/neckPain/S001C001P002R001A047_rgb/image_%05d.jpg':\n",
      "  Metadata:\n",
      "    major_brand     : qt  \n",
      "    minor_version   : 0\n",
      "    compatible_brands: qt  \n",
      "    com.apple.photos.originating.signature: AXjm9+fbLrFn2s8Vfxqf35tbNW3q\n",
      "    com.apple.quicktime.make: Apple\n",
      "    com.apple.quicktime.model: iPhone SE (2nd generation)\n",
      "    com.apple.quicktime.software: 14.8.1\n",
      "    com.apple.quicktime.creationdate: 2021-11-28T16:18:29-0800\n",
      "    encoder         : Lavf58.29.100\n",
      "    Stream #0:0(und): Video: mjpeg, yuvj420p(pc), 427x240, q=2-31, 200 kb/s, 30 fps, 30 tbn, 30 tbc (default)\n",
      "    Metadata:\n",
      "      creation_time   : 2021-11-29T00:35:12.000000Z\n",
      "      handler_name    : Core Media Video\n",
      "      encoder         : Lavc58.54.100 mjpeg\n",
      "    Side data:\n",
      "      cpb: bitrate max/min/avg: 0/0/200000 buffer size: 0 vbv_delay: -1\n",
      "Input #0, mov,mp4,m4a,3gp,3g2,mj2, from '/home/shared/workspace/rose_ntu_dataset/our_videos/nauseaVomiting/S001C001P002R001A048_rgb.avi':\n",
      "  Metadata:\n",
      "    major_brand     : qt  \n",
      "    minor_version   : 0\n",
      "    compatible_brands: qt  \n",
      "    creation_time   : 2021-11-29T00:35:12.000000Z\n",
      "    com.apple.quicktime.make: Apple\n",
      "    com.apple.quicktime.model: iPhone SE (2nd generation)\n",
      "    com.apple.quicktime.software: 14.8.1\n",
      "    com.apple.quicktime.creationdate: 2021-11-28T16:18:50-0800\n",
      "    com.apple.photos.originating.signature: ARzQYqnrYEfNXMFa1FhjhkLC6zXp\n",
      "  Duration: 00:00:02.83, start: 0.000000, bitrate: 15327 kb/s\n",
      "    Stream #0:0(und): Video: h264 (High) (avc1 / 0x31637661), yuv420p(tv, bt709), 1920x1080, 15270 kb/s, 30 fps, 30 tbr, 600 tbn, 1200 tbc (default)\n",
      "    Metadata:\n",
      "      creation_time   : 2021-11-29T00:35:12.000000Z\n",
      "      handler_name    : Core Media Video\n",
      "      encoder         : H.264\n",
      "    Stream #0:1(und): Data: none (mebx / 0x7862656D), 0 kb/s (default)\n",
      "    Metadata:\n",
      "      creation_time   : 2021-11-29T00:35:12.000000Z\n",
      "      handler_name    : Core Media Metadata\n",
      "    Stream #0:2(und): Data: none (mebx / 0x7862656D), 4 kb/s (default)\n",
      "    Metadata:\n",
      "      creation_time   : 2021-11-29T00:35:12.000000Z\n",
      "      handler_name    : Core Media Metadata\n",
      "    Stream #0:3(und): Data: none (mebx / 0x7862656D), 36 kb/s (default)\n",
      "    Metadata:\n",
      "      creation_time   : 2021-11-29T00:35:12.000000Z\n",
      "      handler_name    : Core Media Metadata\n",
      "Stream mapping:\n",
      "  Stream #0:0 -> #0:0 (h264 (native) -> mjpeg (native))\n",
      "Press [q] to stop, [?] for help\n",
      "\u001b[1;34m[swscaler @ 0x555df08ced00] \u001b[0m\u001b[0;33mdeprecated pixel format used, make sure you did set range correctly\n",
      "\u001b[0mOutput #0, image2, to 'our_data/jpg/nauseaVomiting/S001C001P002R001A048_rgb/image_%05d.jpg':\n",
      "  Metadata:\n",
      "    major_brand     : qt  frame=   20 fps=0.0 q=24.8 size=N/A time=00:00:00.66 bitrate=N/A speed=1.28x    \n",
      "    minor_version   : 0\n",
      "    compatible_brands: qt  \n",
      "    com.apple.photos.originating.signature: ARzQYqnrYEfNXMFa1FhjhkLC6zXp\n",
      "    com.apple.quicktime.make: Apple\n",
      "    com.apple.quicktime.model: iPhone SE (2nd generation)\n",
      "    com.apple.quicktime.software: 14.8.1\n",
      "    com.apple.quicktime.creationdate: 2021-11-28T16:18:50-0800\n",
      "    encoder         : Lavf58.29.100\n",
      "    Stream #0:0(und): Video: mjpeg, yuvj420p(pc), 427x240, q=2-31, 200 kb/s, 30 fps, 30 tbn, 30 tbc (default)\n",
      "    Metadata:\n",
      "      creation_time   : 2021-11-29T00:35:12.000000Z\n",
      "      handler_name    : Core Media Video\n",
      "      encoder         : Lavc58.54.100 mjpeg\n",
      "    Side data:\n",
      "      cpb: bitrate max/min/avg: 0/0/200000 buffer size: 0 vbv_delay: -1\n",
      "frame=   94 fps= 41 q=24.8 Lsize=N/A time=00:00:03.13 bitrate=N/A speed=1.38x    \n",
      "video:582kB audio:0kB subtitle:0kB other streams:0kB global headers:0kB muxing overhead: unknown\n",
      "\n",
      "\n",
      "['ffmpeg', '-i', '/home/shared/workspace/rose_ntu_dataset/our_videos/staggering/S001C001P001R001A042_rgb.avi', '-vf', 'scale=-1:240', '-threads', '1', 'our_data/jpg/staggering/S001C001P001R001A042_rgb/image_%05d.jpg']\n",
      "frame=   75 fps= 41 q=24.8 Lsize=N/A time=00:00:02.50 bitrate=N/A speed=1.38x    \n",
      "video:491kB audio:0kB subtitle:0kB other streams:0kB global headers:0kB muxing overhead: unknown\n",
      "\n",
      "\n",
      "ffmpeg version 4.2 Copyright (c) 2000-2019 the FFmpeg developers\n",
      "  built with gcc 7.3.0 (crosstool-NG 1.23.0.449-a04d0)\n",
      "  configuration: --prefix=/home/ubuntu/anaconda3 --cc=/home/conda/feedstock_root/build_artifacts/ffmpeg_1566210161358/_build_env/bin/x86_64-conda_cos6-linux-gnu-cc --disable-doc --disable-openssl --enable-avresample --enable-gnutls --enable-gpl --enable-hardcoded-tables --enable-libfreetype --enable-libopenh264 --enable-libx264 --enable-pic --enable-pthreads --enable-shared --enable-static --enable-version3 --enable-zlib --enable-libmp3lame\n",
      "  libavutil      56. 31.100 / 56. 31.100\n",
      "  libavcodec     58. 54.100 / 58. 54.100\n",
      "  libavformat    58. 29.100 / 58. 29.100\n",
      "  libavdevice    58.  8.100 / 58.  8.100\n",
      "  libavfilter     7. 57.100 /  7. 57.100\n",
      "  libavresample   4.  0.  0 /  4.  0.  0\n",
      "  libswscale      5.  5.100 /  5.  5.100\n",
      "  libswresample   3.  5.100 /  3.  5.100\n",
      "  libpostproc    55.  5.100 / 55.  5.100\n",
      "frame=   75 fps= 39 q=24.8 Lsize=N/A time=00:00:02.50 bitrate=N/A speed= 1.3x    \n",
      "video:482kB audio:0kB subtitle:0kB other streams:0kB global headers:0kB muxing overhead: unknown\n",
      "\n",
      "\n",
      "Input #0, mov,mp4,m4a,3gp,3g2,mj2, from '/home/shared/workspace/rose_ntu_dataset/our_videos/staggering/S001C001P001R001A042_rgb.avi':\n",
      "  Metadata:\n",
      "    major_brand     : qt  \n",
      "    minor_version   : 0\n",
      "    compatible_brands: qt  \n",
      "    creation_time   : 2021-11-29T00:35:00.000000Z\n",
      "    com.apple.quicktime.make: Apple\n",
      "    com.apple.quicktime.model: iPhone SE (2nd generation)\n",
      "    com.apple.quicktime.software: 14.8.1\n",
      "    com.apple.quicktime.creationdate: 2021-11-28T16:04:36-0800\n",
      "    com.apple.photos.originating.signature: ASpRHMfSJuRUPUIBjPuxhUXvcnxo\n",
      "  Duration: 00:00:02.42, start: 0.000000, bitrate: 15691 kb/s\n",
      "    Stream #0:0(und): Video: h264 (High) (avc1 / 0x31637661), yuv420p(tv, bt709), 1920x1080, 15608 kb/s, 30.58 fps, 30 tbr, 600 tbn, 1200 tbc (default)\n",
      "    Metadata:\n",
      "      creation_time   : 2021-11-29T00:35:00.000000Z\n",
      "      handler_name    : Core Media Video\n",
      "      encoder         : H.264\n",
      "    Stream #0:1(und): Data: none (mebx / 0x7862656D), 0 kb/s (default)\n",
      "    Metadata:\n",
      "      creation_time   : 2021-11-29T00:35:00.000000Z\n",
      "      handler_name    : Core Media Metadata\n",
      "    Stream #0:2(und): Data: none (mebx / 0x7862656D), 20 kb/s (default)\n",
      "    Metadata:\n",
      "      creation_time   : 2021-11-29T00:35:00.000000Z\n",
      "      handler_name    : Core Media Metadata\n",
      "    Stream #0:3(und): Data: none (mebx / 0x7862656D), 41 kb/s (default)\n",
      "    Metadata:\n",
      "      creation_time   : 2021-11-29T00:35:00.000000Z\n",
      "      handler_name    : Core Media Metadata\n",
      "Stream mapping:\n",
      "  Stream #0:0 -> #0:0 (h264 (native) -> mjpeg (native))\n",
      "Press [q] to stop, [?] for help\n",
      "\u001b[1;34m[swscaler @ 0x563f959cb240] \u001b[0m\u001b[0;33mdeprecated pixel format used, make sure you did set range correctly\n",
      "\u001b[0mOutput #0, image2, to 'our_data/jpg/staggering/S001C001P001R001A042_rgb/image_%05d.jpg':\n",
      "  Metadata:\n",
      "    major_brand     : qt  \n",
      "    minor_version   : 0\n",
      "    compatible_brands: qt  \n",
      "    com.apple.photos.originating.signature: ASpRHMfSJuRUPUIBjPuxhUXvcnxo\n",
      "    com.apple.quicktime.make: Apple\n",
      "    com.apple.quicktime.model: iPhone SE (2nd generation)\n",
      "    com.apple.quicktime.software: 14.8.1\n",
      "    com.apple.quicktime.creationdate: 2021-11-28T16:04:36-0800\n",
      "    encoder         : Lavf58.29.100\n",
      "    Stream #0:0(und): Video: mjpeg, yuvj420p(pc), 427x240, q=2-31, 200 kb/s, 30 fps, 30 tbn, 30 tbc (default)\n",
      "    Metadata:\n",
      "      creation_time   : 2021-11-29T00:35:00.000000Z\n",
      "      handler_name    : Core Media Video\n",
      "      encoder         : Lavc58.54.100 mjpeg\n",
      "    Side data:\n",
      "      cpb: bitrate max/min/avg: 0/0/200000 buffer size: 0 vbv_delay: -1\n"
     ]
    },
    {
     "name": "stdout",
     "output_type": "stream",
     "text": [
      "frame=   85 fps= 46 q=24.8 Lsize=N/A time=00:00:02.83 bitrate=N/A speed=1.52x    \n",
      "video:543kB audio:0kB subtitle:0kB other streams:0kB global headers:0kB muxing overhead: unknown\n",
      "\n",
      "\n",
      "frame=   74 fps=0.0 q=24.8 Lsize=N/A time=00:00:02.46 bitrate=N/A speed=3.87x    \n",
      "video:504kB audio:0kB subtitle:0kB other streams:0kB global headers:0kB muxing overhead: unknown\n",
      "\n",
      "\n",
      "['ffmpeg', '-i', '/home/shared/workspace/rose_ntu_dataset/our_videos/staggering/S001C001P002R001A042_rgb.avi', '-vf', 'scale=-1:240', '-threads', '1', 'our_data/jpg/staggering/S001C001P002R001A042_rgb/image_%05d.jpg']\n",
      "ffmpeg version 4.2 Copyright (c) 2000-2019 the FFmpeg developers\n",
      "  built with gcc 7.3.0 (crosstool-NG 1.23.0.449-a04d0)\n",
      "  configuration: --prefix=/home/ubuntu/anaconda3 --cc=/home/conda/feedstock_root/build_artifacts/ffmpeg_1566210161358/_build_env/bin/x86_64-conda_cos6-linux-gnu-cc --disable-doc --disable-openssl --enable-avresample --enable-gnutls --enable-gpl --enable-hardcoded-tables --enable-libfreetype --enable-libopenh264 --enable-libx264 --enable-pic --enable-pthreads --enable-shared --enable-static --enable-version3 --enable-zlib --enable-libmp3lame\n",
      "  libavutil      56. 31.100 / 56. 31.100\n",
      "  libavcodec     58. 54.100 / 58. 54.100\n",
      "  libavformat    58. 29.100 / 58. 29.100\n",
      "  libavdevice    58.  8.100 / 58.  8.100\n",
      "  libavfilter     7. 57.100 /  7. 57.100\n",
      "  libavresample   4.  0.  0 /  4.  0.  0\n",
      "  libswscale      5.  5.100 /  5.  5.100\n",
      "  libswresample   3.  5.100 /  3.  5.100\n",
      "  libpostproc    55.  5.100 / 55.  5.100\n",
      "Input #0, mov,mp4,m4a,3gp,3g2,mj2, from '/home/shared/workspace/rose_ntu_dataset/our_videos/staggering/S001C001P002R001A042_rgb.avi':\n",
      "  Metadata:\n",
      "    major_brand     : qt  \n",
      "    minor_version   : 0\n",
      "    compatible_brands: qt  \n",
      "    creation_time   : 2021-11-29T00:35:08.000000Z\n",
      "    com.apple.quicktime.make: Apple\n",
      "    com.apple.quicktime.model: iPhone SE (2nd generation)\n",
      "    com.apple.quicktime.software: 14.8.1\n",
      "    com.apple.quicktime.creationdate: 2021-11-28T16:16:52-0800\n",
      "    com.apple.photos.originating.signature: AQSCHlsIcK0/obY4Bk6X9Wnn3EB6\n",
      "  Duration: 00:00:03.07, start: 0.000000, bitrate: 15912 kb/s\n",
      "    Stream #0:0(und): Video: h264 (High) (avc1 / 0x31637661), yuv420p(tv, bt709), 1920x1080, 15842 kb/s, 30.29 fps, 30 tbr, 600 tbn, 1200 tbc (default)\n",
      "    Metadata:\n",
      "      creation_time   : 2021-11-29T00:35:08.000000Z\n",
      "      handler_name    : Core Media Video\n",
      "      encoder         : H.264\n",
      "    Stream #0:1(und): Data: none (mebx / 0x7862656D), 0 kb/s (default)\n",
      "    Metadata:\n",
      "      creation_time   : 2021-11-29T00:35:08.000000Z\n",
      "      handler_name    : Core Media Metadata\n",
      "    Stream #0:2(und): Data: none (mebx / 0x7862656D), 14 kb/s (default)\n",
      "    Metadata:\n",
      "      creation_time   : 2021-11-29T00:35:08.000000Z\n",
      "      handler_name    : Core Media Metadata\n",
      "    Stream #0:3(und): Data: none (mebx / 0x7862656D), 39 kb/s (default)\n",
      "    Metadata:\n",
      "      creation_time   : 2021-11-29T00:35:08.000000Z\n",
      "      handler_name    : Core Media Metadata\n",
      "Stream mapping:\n",
      "  Stream #0:0 -> #0:0 (h264 (native) -> mjpeg (native))\n",
      "Press [q] to stop, [?] for help\n",
      "\u001b[1;34m[swscaler @ 0x5624897fb280] \u001b[0m\u001b[0;33mdeprecated pixel format used, make sure you did set range correctly\n",
      "\u001b[0mOutput #0, image2, to 'our_data/jpg/staggering/S001C001P002R001A042_rgb/image_%05d.jpg':\n",
      "  Metadata:\n",
      "    major_brand     : qt  \n",
      "    minor_version   : 0\n",
      "    compatible_brands: qt  \n",
      "    com.apple.photos.originating.signature: AQSCHlsIcK0/obY4Bk6X9Wnn3EB6\n",
      "    com.apple.quicktime.make: Apple\n",
      "    com.apple.quicktime.model: iPhone SE (2nd generation)\n",
      "    com.apple.quicktime.software: 14.8.1\n",
      "    com.apple.quicktime.creationdate: 2021-11-28T16:16:52-0800\n",
      "    encoder         : Lavf58.29.100\n",
      "    Stream #0:0(und): Video: mjpeg, yuvj420p(pc), 427x240, q=2-31, 200 kb/s, 30 fps, 30 tbn, 30 tbc (default)\n",
      "    Metadata:\n",
      "      creation_time   : 2021-11-29T00:35:08.000000Z\n",
      "      handler_name    : Core Media Video\n",
      "      encoder         : Lavc58.54.100 mjpeg\n",
      "    Side data:\n",
      "      cpb: bitrate max/min/avg: 0/0/200000 buffer size: 0 vbv_delay: -1\n",
      "frame=   93 fps=0.0 q=24.8 Lsize=N/A time=00:00:03.10 bitrate=N/A speed=4.71x    \n",
      "video:593kB audio:0kB subtitle:0kB other streams:0kB global headers:0kB muxing overhead: unknown\n",
      "\n",
      "\n"
     ]
    }
   ],
   "source": [
    "!python -m util_scripts.generate_video_jpgs /home/shared/workspace/rose_ntu_dataset/our_videos/ our_data/jpg/ ucf101"
   ]
  },
  {
   "cell_type": "code",
   "execution_count": 33,
   "id": "4e380740",
   "metadata": {},
   "outputs": [],
   "source": [
    "!python -m util_scripts.ntu_test_json /home/shared/workspace/rose_ntu_dataset/our_videos_labels/ our_data/jpg/ our_data/"
   ]
  },
  {
   "cell_type": "code",
   "execution_count": 34,
   "id": "8bd84c43",
   "metadata": {
    "scrolled": true
   },
   "outputs": [
    {
     "name": "stdout",
     "output_type": "stream",
     "text": [
      "\u001b[0m\u001b[01;34mjpg\u001b[0m/  ucf101_01.json\r\n"
     ]
    }
   ],
   "source": [
    "ls our_data"
   ]
  },
  {
   "cell_type": "code",
   "execution_count": 36,
   "id": "32671571",
   "metadata": {},
   "outputs": [],
   "source": [
    "cp our_data/ucf101_01.json our_data/ntutest.json"
   ]
  },
  {
   "cell_type": "code",
   "execution_count": 37,
   "id": "9ebfda28",
   "metadata": {},
   "outputs": [
    {
     "name": "stdout",
     "output_type": "stream",
     "text": [
      "/home/shared/workspace/Resnet3D/3D-ResNets-PyTorch/our_data/jpg/headache/S001C001P002R001A044_rgb 94\r\n",
      "/home/shared/workspace/Resnet3D/3D-ResNets-PyTorch/our_data/jpg/headache/S001C001P001R001A044_rgb 82\r\n",
      "/home/shared/workspace/Resnet3D/3D-ResNets-PyTorch/our_data/jpg/fallingDown/S001C001P001R001A043_rgb 93\r\n",
      "/home/shared/workspace/Resnet3D/3D-ResNets-PyTorch/our_data/jpg/fallingDown/S001C001P002R001A043_rgb 75\r\n",
      "/home/shared/workspace/Resnet3D/3D-ResNets-PyTorch/our_data/jpg/sneezeCough/S001C001P002R001A041_rgb 75\r\n",
      "/home/shared/workspace/Resnet3D/3D-ResNets-PyTorch/our_data/jpg/sneezeCough/S001C001P001R001A041_rgb 43\r\n",
      "/home/shared/workspace/Resnet3D/3D-ResNets-PyTorch/our_data/jpg/backPain/S001C001P002R001A046_rgb 89\r\n",
      "/home/shared/workspace/Resnet3D/3D-ResNets-PyTorch/our_data/jpg/backPain/S001C001P001R001A046_rgb 103\r\n",
      "/home/shared/workspace/Resnet3D/3D-ResNets-PyTorch/our_data/jpg/fanSelf/S001C001P001R001A049_rgb 88\r\n",
      "/home/shared/workspace/Resnet3D/3D-ResNets-PyTorch/our_data/jpg/fanSelf/S001C001P002R001A049_rgb 110\r\n",
      "/home/shared/workspace/Resnet3D/3D-ResNets-PyTorch/our_data/jpg/staggering/S001C001P002R001A042_rgb 93\r\n",
      "/home/shared/workspace/Resnet3D/3D-ResNets-PyTorch/our_data/jpg/staggering/S001C001P001R001A042_rgb 74\r\n",
      "/home/shared/workspace/Resnet3D/3D-ResNets-PyTorch/our_data/jpg/nauseaVomiting/S001C001P001R001A048_rgb 97\r\n",
      "/home/shared/workspace/Resnet3D/3D-ResNets-PyTorch/our_data/jpg/nauseaVomiting/S001C001P002R001A048_rgb 85\r\n",
      "/home/shared/workspace/Resnet3D/3D-ResNets-PyTorch/our_data/jpg/chestPain/S001C001P001R001A045_rgb 109\r\n",
      "/home/shared/workspace/Resnet3D/3D-ResNets-PyTorch/our_data/jpg/chestPain/S001C001P002R001A045_rgb 99\r\n",
      "/home/shared/workspace/Resnet3D/3D-ResNets-PyTorch/our_data/jpg/neckPain/S001C001P001R001A047_rgb 84\r\n",
      "/home/shared/workspace/Resnet3D/3D-ResNets-PyTorch/our_data/jpg/neckPain/S001C001P002R001A047_rgb 75\r\n"
     ]
    }
   ],
   "source": [
    "!python /home/shared/workspace/human-activity-recognition/Efficient-3DCNNs/utils/n_frames_ucf101_hmdb51.py /home/shared/workspace/Resnet3D/3D-ResNets-PyTorch/our_data/jpg/"
   ]
  },
  {
   "cell_type": "code",
   "execution_count": null,
   "id": "31a2fd54",
   "metadata": {},
   "outputs": [],
   "source": []
  }
 ],
 "metadata": {
  "kernelspec": {
   "display_name": "Python 3",
   "language": "python",
   "name": "python3"
  },
  "language_info": {
   "codemirror_mode": {
    "name": "ipython",
    "version": 3
   },
   "file_extension": ".py",
   "mimetype": "text/x-python",
   "name": "python",
   "nbconvert_exporter": "python",
   "pygments_lexer": "ipython3",
   "version": "3.6.9"
  }
 },
 "nbformat": 4,
 "nbformat_minor": 5
}
